<?xml version="1.0" standalone="no"?>
<!DOCTYPE svg PUBLIC "-//W3C//DTD SVG 1.1//EN" "http://www.w3.org/Graphics/SVG/1.1/DTD/svg11.dtd" >
<svg xmlns="http://www.w3.org/2000/svg">
<metadata></metadata>
<defs>
<font id="laikalaika" horiz-adv-x="1333" >
<font-face units-per-em="2048" ascent="1536" descent="-512" />
<missing-glyph horiz-adv-x="610" />
<glyph horiz-adv-x="2048" />
<glyph horiz-adv-x="2048" />
<glyph unicode="&#xd;" horiz-adv-x="2048" />
<glyph unicode=" "  horiz-adv-x="610" />
<glyph unicode="&#x09;" horiz-adv-x="610" />
<glyph unicode="&#xa0;" horiz-adv-x="610" />
<glyph unicode="!" horiz-adv-x="755" d="M102 1221h551l-35 -850h-454zM180 92q0 87 61 148t148 61q88 0 149.5 -61.5t61.5 -147.5q0 -87 -62 -149t-149 -62t-148 62t-61 149z" />
<glyph unicode="&#x22;" horiz-adv-x="774" d="M102 969v368h246v-368h-246zM426 969v368h246v-368h-246z" />
<glyph unicode="#" horiz-adv-x="1634" d="M102 231v285h168l52 221h-220v279h285l92 301h389l-98 -301h223l92 301h390l-99 -301h156v-279h-225l-56 -221h170v-285h-239l-68 -247h-366l63 247h-236l-67 -247h-367l64 247h-103zM645 516h232l51 221h-228z" />
<glyph unicode="$" horiz-adv-x="999" d="M102 764q0 122 68 197t225 100l-18 190h61q238 0 246 4q-1 -1 -3 -24t-6.5 -64t-8.5 -73v-19q50 0 206 -12v-330l-12 1q-12 2 -33 4t-45.5 4.5t-56 4t-59.5 1.5q-172 0 -172 -58q0 -8 1 -13t6 -12t18 -11.5t34 -6.5q29 -1 50.5 -2t60 -6t66.5 -13.5t61.5 -26t55 -40.5 t36 -59.5t14.5 -81.5q0 -70 -22 -122t-62 -82.5t-80.5 -47t-93.5 -27.5q4 -34 10 -80.5t11 -76.5l4 -31h-62q-242 0 -248 -4q0 1 2.5 28t6 72.5t6.5 81.5l-252 14v297q176 -26 299 -26q103 0 106 26q0 21 -11.5 32.5t-25 14.5t-33.5 6t-28 5q-3 1 -22 2.5t-40.5 4t-52 10.5 t-58 19t-55.5 31.5t-48 46.5t-33 65t-13 87z" />
<glyph unicode="%" horiz-adv-x="1964" d="M102 1026q0 28 4 57.5t22.5 77.5t50 84t94.5 63t147 27q48 0 88 -9t68.5 -23t51.5 -36.5t37.5 -43.5t25 -50.5t15.5 -51t7.5 -51.5t3 -45.5t0.5 -39.5q0 -22 -3 -47.5t-20.5 -73t-47 -83.5t-90 -63.5t-142.5 -27.5q-150 0 -231 93t-81 243zM317 1012q0 -13 2.5 -33 t10.5 -56t30 -59.5t54 -23.5q29 0 48.5 18.5t28.5 49.5t12 57t3 55q0 24 -3 48.5t-11.5 55t-28.5 49.5t-49 19q-97 0 -97 -180zM592 -47l338 1464h456l-360 -1464h-434zM1247 408q0 28 4 57.5t22.5 77.5t50 84t94.5 63t147 27q48 0 88 -9t68.5 -23t51.5 -36.5t37.5 -43.5 t25 -50.5t15.5 -51t7.5 -51.5t3 -45.5t0.5 -39.5q0 -22 -3 -47.5t-20.5 -73t-47 -83.5t-90 -63.5t-142.5 -27.5q-150 0 -231 93t-81 243zM1462 393q0 -13 2.5 -33t10.5 -56t30 -59.5t54 -23.5q29 0 48.5 18.5t28.5 49.5t12 57t3 55q0 24 -3 48.5t-11.5 55t-28.5 49.5t-49 19 q-97 0 -97 -180z" />
<glyph unicode="&#x26;" horiz-adv-x="1347" d="M102 870v27q0 64 25 119t63 90.5t86 62t91 39t82 15.5q59 4 251 4h338l13 -355q-294 25 -400 25q-7 0 -20.5 -1t-20.5 -1q-128 -11 -131 -80q5 -78 142 -78q6 0 18 1t18 1q38 4 80.5 12t68.5 15l25 6v-291l-76 11q-55 6 -100 6q-33 0 -47 -2q-121 -8 -121 -68 q5 -78 162 -78q40 0 60 2q38 3 78 8.5t61 9.5l20 5v176l377 29v-625l-397 -47v98l-6 -1q-7 -1 -19 -3t-27 -4t-36.5 -4t-42.5 -4q-58 -4 -92 -4q-66 0 -125.5 7t-125 27t-115 52t-86 87t-46.5 128q0 5 0.5 14.5t4 37t9.5 53t19 56.5t30.5 54t46 40t64.5 19q-7 3 -19.5 8.5 t-44.5 29.5t-57.5 55.5t-49 89t-28.5 126.5z" />
<glyph unicode="'" horiz-adv-x="450" d="M102 969v368h246v-368h-246z" />
<glyph unicode="(" horiz-adv-x="937" d="M102 227v879q3 127 30 219.5t67 146.5t102.5 85.5t125 42t146.5 10.5q60 0 119 -6t88 -12l29 -5l27 -366q-35 10 -103 10q-53 0 -85.5 -8t-54.5 -24.5t-32.5 -53t-14 -81.5t-3.5 -122v-606q0 -66 5.5 -104t24.5 -70.5t58 -46t102 -13.5q30 0 56 3t37 5l10 3l-27 -367 q-101 -22 -236 -22q-145 0 -244.5 38.5t-156.5 145.5q-36 68 -53 160q-4 23 -13 102q-4 36 -4 57z" />
<glyph unicode=")" horiz-adv-x="937" d="M102 113q35 -11 103 -11q63 0 102 13.5t58 46t24.5 70.5t5.5 104v606q0 77 -3.5 122t-14 81.5t-32.5 53t-54.5 24.5t-85.5 8q-30 0 -56 -2.5t-37 -4.5l-10 -3l27 366q101 23 236 23q84 0 146.5 -10.5t125 -42t102.5 -85.5t67 -146.5t30 -219.5v-879q0 -12 -5 -57 q-10 -91 -12 -102q-17 -92 -53 -160q-57 -107 -156.5 -145.5t-244.5 -38.5q-60 0 -119 5.5t-88 10.5l-29 6z" />
<glyph unicode="*" horiz-adv-x="753" d="M0 1247l94 160l187 -78v209l282 -18l-80 -220l209 50l62 -236l-217 14l143 -198l-213 -107l-125 224l-147 -201l-166 141l190 180z" />
<glyph unicode="+" horiz-adv-x="1028" d="M102 475v307h238v265l338 2v-267h248v-307h-248v-207h-338v207h-238z" />
<glyph unicode="," horiz-adv-x="575" d="M57 213q0 79 57 134.5t136 55.5q25 0 37 -2q61 -2 121.5 -60.5t64.5 -158.5v-8q0 -41 -8 -89.5t-19 -89.5t-22 -75.5t-19 -55.5l-8 -22h-276l67 187q-58 21 -94.5 71t-36.5 113z" />
<glyph unicode="-" horiz-adv-x="757" d="M102 475v307h553v-307h-553z" />
<glyph unicode="." horiz-adv-x="516" d="M72 186q0 77 55 132t131 55t131 -55t55 -132q0 -76 -55 -131t-131 -55t-131 55t-55 131z" />
<glyph unicode="/" horiz-adv-x="999" d="M102 -47l338 1464h457l-360 -1464h-435z" />
<glyph unicode="0" d="M72 649q0 35 3 72.5t17 99.5t38 116t70.5 113t109 100.5t159.5 69t217 27.5q118 0 212 -28.5t153 -69.5t102 -107t63 -120t31.5 -132t13 -118.5t1.5 -102.5q0 -26 -2.5 -57t-15.5 -90t-35 -111.5t-66.5 -111.5t-104 -101t-153.5 -70t-209 -28q-146 0 -262 49.5t-190 137 t-113 205t-39 257.5zM489 625q0 -15 1.5 -35t6 -63t17 -80t31.5 -74.5t52.5 -59.5t76.5 -22q176 0 176 348q0 36 -2.5 71t-13 85t-28 86t-51.5 62t-79 26q-40 0 -72 -16.5t-51.5 -45.5t-33 -62.5t-19.5 -75.5t-8.5 -75t-2.5 -69z" />
<glyph unicode="1" horiz-adv-x="892" d="M102 829l29 410v-18h660v-1221h-492l68 848z" />
<glyph unicode="2" horiz-adv-x="1128" d="M102 313q16 12 42.5 32t94 78t119 111t94 116.5t42.5 107.5q0 12 -2 16q-11 76 -111 76q-45 0 -102.5 -14t-92.5 -28l-34 -15l-50 381q204 47 381 47q230 0 354 -87.5t142 -246.5q0 -6 1 -18t1 -17q0 -54 -17 -110.5t-43.5 -104t-59.5 -92t-65.5 -78.5t-59 -60t-43.5 -39 l-17 -14l350 21v-371h-897z" />
<glyph unicode="3" horiz-adv-x="1122" d="M102 336q138 -14 267 -14q229 0 229 63q-5 74 -252 74l-143 -4l-25 282q176 -8 293 -14h12q31 0 54.5 7.5t34.5 18.5t17.5 22t7.5 19l1 7q-18 75 -201 75q-56 0 -123.5 -7t-107.5 -14l-39 -7l-25 346q196 35 351 35q266 0 416.5 -86.5t150.5 -245.5q0 -56 -12.5 -105 t-32.5 -82.5t-43.5 -61t-47.5 -43.5t-44 -27t-32 -15l-13 -4q97 -20 161 -85t64 -161q0 -332 -606 -332q-69 0 -139.5 4.5t-106.5 9.5l-35 5z" />
<glyph unicode="4" horiz-adv-x="1146" d="M74 377v811l450 24l-78 -536h164l33 536h401v-1224h-458l22 389h-534z" />
<glyph unicode="5" horiz-adv-x="1132" d="M102 33v301q117 -17 228 -17q235 0 235 95q-5 90 -209 90q-56 0 -119.5 -6t-98.5 -12l-36 -7l39 719l889 39v-350h-516l-22 -154q111 21 190 21q91 0 158.5 -26t102.5 -61.5t56 -84t26 -82.5t5 -68q0 -100 -34.5 -177t-90 -123.5t-135.5 -76t-161 -40.5t-177 -11 q-80 0 -162.5 8t-125.5 16z" />
<glyph unicode="6" horiz-adv-x="1198" d="M47 530q0 76 10.5 146.5t36 144t65.5 136t103 118.5t143.5 95t192 62t244.5 23q84 0 235 -14l-37 -422q-130 33 -282 33q-331 0 -432 -193l36 -28q3 4 10 11.5t34 25.5t61 32t95 25.5t132 11.5h56q97 -6 165.5 -37t107 -84.5t56 -120t17.5 -153.5q0 -71 -29 -132.5 t-87.5 -112t-158 -80t-229.5 -29.5h-55q-20 0 -52 4q-438 47 -438 538zM502 387q0 -49 35.5 -82t85.5 -35q59 0 97.5 32.5t41.5 84.5q0 44 -36 77t-93 34q-54 0 -91 -31t-40 -80z" />
<glyph unicode="7" horiz-adv-x="1114" d="M102 1223l910 -2v-324l-346 -891h-523l408 856h-418z" />
<glyph unicode="8" horiz-adv-x="1304" d="M53 848q0 24 3 49t17 65.5t36.5 76.5t66.5 74.5t102.5 66t149.5 45.5t203 18q116 0 210 -18t155 -45.5t106.5 -66t69 -74t37.5 -76.5t17 -66t3 -49q0 -92 -50 -172t-139 -127q121 -68 121 -254q0 -65 -31.5 -117.5t-83.5 -87.5t-121 -59t-142.5 -34.5t-149.5 -10.5 q-73 0 -143 10.5t-137 34.5t-117.5 58.5t-81.5 88t-31 117.5q0 189 121 254q-84 41 -137.5 119t-53.5 180zM506 375q0 -43 35.5 -73t83.5 -32q58 0 96 30t41 75q0 39 -36 69t-91 31q-53 0 -89.5 -28t-39.5 -72zM506 858q0 -43 35.5 -72.5t83.5 -31.5q58 0 96 29.5t41 74.5 q0 39 -36 69t-91 31q-53 0 -89.5 -28t-39.5 -72z" />
<glyph unicode="9" horiz-adv-x="1185" d="M57 889q0 68 29 128t88 109.5t160 78t233 28.5h56q17 0 53 -4q442 -47 442 -524q0 -106 -21 -200t-77.5 -189t-144 -163t-232 -110.5t-330.5 -42.5q-87 0 -237 14l39 410q130 -33 284 -33q335 0 439 189l-39 28q-3 -4 -10 -11t-34.5 -24.5t-62 -31t-96 -24.5t-133.5 -11 h-55q-190 9 -270.5 108t-80.5 275zM395 844q0 -43 36.5 -75.5t94.5 -33.5q54 0 91 31t40 78q0 49 -35 80.5t-85 31.5q-62 0 -100.5 -30.5t-41.5 -81.5z" />
<glyph unicode=":" horiz-adv-x="602" d="M102 780q0 75 52.5 126.5t126.5 51.5t126 -51.5t52 -126.5q0 -73 -52 -124.5t-126 -51.5t-126.5 51.5t-52.5 124.5zM131 301q0 67 48 114.5t116 47.5t116 -47.5t48 -114.5t-48.5 -115.5t-115.5 -48.5t-115.5 48.5t-48.5 115.5z" />
<glyph unicode=";" horiz-adv-x="575" d="M57 213q0 79 57 134.5t136 55.5q25 0 37 -2q61 -2 121.5 -60.5t64.5 -158.5v-8q0 -41 -8 -89.5t-19 -89.5t-22 -75.5t-19 -55.5l-8 -22h-276l67 187q-58 21 -94.5 71t-36.5 113zM88 670q0 72 52 124t124 52q73 0 124.5 -52t51.5 -124q0 -74 -51 -125t-125 -51 q-72 0 -124 51.5t-52 124.5z" />
<glyph unicode="&#x3c;" horiz-adv-x="788" d="M102 590q1 0 50.5 82t99 168.5t49.5 95.5h1h1h1h1h1h1h1h1h1h1h1h1h1h1h1h1h1h1h1h1h1h1h1h1h1h1h1h1h1h1h1h1h1h1h1h1h1h1h1h1h1h1h1h1h1h1h1h1h1h1h1h1h1h1h1h1h1h1h1h1h1h1h1h1h2h1h1h1h1h1h1h1h1h1h2h1h1h1h1h1h1h2h1h1h1h1h2h1h1h1h1h2h1h1h1h2h1h1h1h2h1h1h1h2h1h1 h2h1h1h2h1h1h2h1h1h2h1h1h2h1h1h2h1h2h1h1h2h1h2h1h1h2h1h2h1h2h1h2h1h1h2h1h2h1h2h1h2h1h2h1h2h1h2h1h2h1h2h1h2h2h1h2h1h2h1h2h1h2h2h1h2h1h2h2h1h2h1h2h2h1h2h2h1h2h1h2h2h1h2h2h1h2h2h1h2h2h1h2h2h2h1h2h2h1h2h2h2h1h2h2h2h1h2h2h2h1h2h2h2h1h2h2h2h2h1h2h2h2h2h1h2h2h2 h2h2h1h2h2h2h2h2h2h1h2h2h2h9l-194 -367q3 -6 115 -165.5t116 -159.5q-8 -2 -78 -2q-44 0 -158 1t-126 1q0 -3 -55.5 83.5t-110.5 174.5z" />
<glyph unicode="=" horiz-adv-x="937" d="M102 504h676v-254h-674zM102 874h676v-253h-674z" />
<glyph unicode="&#x3e;" horiz-adv-x="788" d="M102 244q4 0 116.5 159.5t115.5 165.5l-195 367h1h1h1h1h1h1h1h1h1h1h1h1h1h1h1h1h1h1h1h1h1h1h1h1h1h1h1h1h1h1h1h1h1h1h1h1h1h1h1h1h1h1h1h1h1h1h1h1h1h1h1h1h1h1h1h1h1h1h1h1h1h1h1h2h1h1h1h1h1h1h1h1h2h1h1h1h1h1h2h1h1h1h1h2h1h1h1h2h1h1h1h2h1h1h1h2h1h1h2h1h1h2h1 h1h2h1h1h2h1h1h2h1h1h2h1h2h1h1h2h1h2h1h1h2h1h2h1h2h1h2h1h2h1h2h1h2h1h2h1h2h1h2h1h2h1h2h1h2h1h2h2h1h2h1h2h2h1h2h1h2h2h1h2h1h2h2h1h2h2h1h2h2h1h2h2h1h2h2h2h1h2h2h1h2h2h2h1h2h2h2h1h2h2h2h2h1h2h2h2h2h1h2h2h2h2h2h1h2h2h2h2h2h2h2h2h1h2h2h2h2h2h2h2h2h2h2h2h2h2h2 h2h2h2h2h2h3h2h2h9q0 -9 49.5 -95.5t99 -168.5t50.5 -82q-14 -22 -37 -58.5t-71.5 -113t-80.5 -126.5t-32 -48q-12 0 -126.5 -1t-158.5 -1q-70 0 -78 2z" />
<glyph unicode="?" horiz-adv-x="1191" d="M102 1276q87 19 209 30t213 11q121 0 220.5 -22t178.5 -68t123 -124.5t44 -184.5q0 -71 -26 -130t-67.5 -97t-92 -68t-101 -45.5t-92 -25.5t-67.5 -12l-26 -3q5 -53 14.5 -170.5t14.5 -173.5h-438v569l170 10q345 29 348 94q-10 56 -256 56q-57 0 -138 -3t-133 -5l-53 -3 zM193 -55q0 -72 72 -123t175 -51t175.5 51t72.5 123t-72.5 122t-175.5 50t-175 -50t-72 -122z" />
<glyph unicode="@" horiz-adv-x="1341" d="M96 584q0 127 10 264q6 70 26 125t49.5 94t76.5 66.5t96.5 44t120 26t137 12.5t156.5 3h94q74 -5 133 -33.5t96.5 -67t65 -98t41 -111t21 -123.5t9 -116.5t1.5 -108.5q0 -46 -7.5 -79t-27.5 -64.5t-61.5 -47.5t-104.5 -16q-72 0 -116 7t-66 24t-29 36t-10 52l-4 -6h-250 v-64h-184l-11 209q27 2 47.5 7t30 11t15 11.5t5.5 9.5l1 4l71 328h287q97 -338 107 -350q6 -6 65 -6l4 -80l35 -2l-2 37q-5 122 -29 260q-15 80 -36 116t-66 52t-137 16q-64 0 -166 -6q-65 -3 -112.5 -26t-75 -57.5t-44 -87.5t-21.5 -104.5t-5 -119.5v-41q0 -87 6 -139 t27 -89q41 -80 204 -80q105 0 263.5 14t265.5 28l106 14q27 -76 27 -129q0 -86 -35 -133q-22 -26 -198.5 -47t-372.5 -21q-144 0 -258 12q-80 9 -135 59t-83.5 132.5t-40.5 173.5t-12 205zM641 657h78l-37 164h-8z" />
<glyph unicode="A" horiz-adv-x="1560" d="M72 410q60 4 103.5 17t63 29t31 31.5t12.5 26.5l1 10l151 697h586q208 -723 237 -756q20 -23 146 -23l65 2l21 -444h-422l18 143h-630v-143h-359zM637 510h225l-92 397h-57z" />
<glyph unicode="B" horiz-adv-x="1310" d="M82 1155q5 5 16 12.5t52 27.5t89.5 35t131 27.5t174.5 12.5q130 0 229 -14.5t181.5 -49t126.5 -99t44 -157.5q0 -51 -11 -94.5t-28 -72t-38 -51t-42 -34.5t-38 -19.5t-28 -10.5l-11 -2h6q14 0 31.5 -1.5t48.5 -9t59 -19.5t59.5 -36.5t54 -57t37.5 -84t15 -114.5 q0 -70 -23 -127.5t-60 -95t-90.5 -66t-106 -44t-117 -24.5t-112 -11.5t-101.5 -2.5q-94 0 -223 15t-211 30l-82 15q-19 921 -33 1122zM485 971l27 -240q11 -2 27 -2q30 0 58.5 5t64 18t57.5 44.5t22 77.5v13q-10 110 -125 110q-29 0 -62 -6.5t-51 -12.5zM522 219 q33 -6 76 -6q31 0 59 3.5t60 14.5t55.5 29t39 49t15.5 72q0 145 -178 145q-18 0 -37.5 -1.5t-34.5 -4t-27 -5t-19.5 -4t-8.5 -1.5v-291z" />
<glyph unicode="C" horiz-adv-x="1280" d="M102 580q0 112 24.5 205t65.5 158t100.5 115t123 80.5t140 49.5t145 26t143.5 6q150 0 334 -34v-484q-104 0 -183 0.5t-118.5 1t-64 1.5t-35.5 1.5t-17 0.5q-37 0 -72 -5.5t-73.5 -20t-61.5 -45t-23 -73.5q0 -38 12.5 -65t29.5 -41.5t46.5 -22t52 -9t56.5 -1.5 q90 0 203 9t180 19l68 9v-434q-146 -31 -328 -31q-73 0 -141 6.5t-144.5 23.5t-141.5 44.5t-125.5 73.5t-102.5 105t-67.5 144t-25.5 187z" />
<glyph unicode="D" horiz-adv-x="1280" d="M98 27v249l4 910q184 35 334 35q75 0 143.5 -7t145 -26t140 -49.5t123 -80.5t100.5 -115t65.5 -158t24.5 -205q0 -102 -25.5 -187t-67.5 -144t-102.5 -105t-125.5 -73.5t-141.5 -44.5t-144.5 -23.5t-141 -6.5q-51 0 -103.5 3t-91.5 8t-70 9.5t-49 7.5zM477 410h17 q21 0 41 2t50 7.5t54 19t47.5 33.5t38 53.5t16.5 76.5l2 21q-3 97 -54 138.5t-122 47.5h-14q-17 0 -35 -2t-29 -4t-12 -2v-391z" />
<glyph unicode="E" horiz-adv-x="1165" d="M72 1219h977v-330h-492v-152l424 17l-12 -312h-412v-145h516l21 -291h-979z" />
<glyph unicode="F" horiz-adv-x="1120" d="M72 1219h977v-330h-492v-199l424 17l-12 -312h-389v-393h-465z" />
<glyph unicode="G" horiz-adv-x="1302" d="M102 586q0 110 24.5 201t65.5 155t100.5 113.5t123.5 79.5t140 49t144.5 26t143.5 7q138 0 342 -35v-410q-136 29 -281 29q-334 0 -334 -203q0 -53 15.5 -93t36.5 -60.5t49.5 -33.5t46 -16t35.5 -4h12l-8 125q69 14 176 14q145 0 264 -14v-594h-405l-5 90 q-101 3 -190 18.5t-183 55.5t-160.5 101t-109.5 163.5t-43 235.5z" />
<glyph unicode="H" horiz-adv-x="1357" d="M72 1221h528v-467h172v467h514v-1221h-514v420h-184v-420h-465z" />
<glyph unicode="I" horiz-adv-x="643" d="M72 1331l170 35l69 119l49 -121l211 -37l-137 -108l15 -132l-154 58l-135 -58l30 154zM86 1030h473v-1030h-430z" />
<glyph unicode="J" horiz-adv-x="989" d="M72 446q40 -12 116 -12q51 0 84.5 5t59 20.5t39.5 37t23 62t11.5 87t2.5 120.5q0 97 -8 214t-16 185l-9 68v-12h536q7 -99 7 -289q0 -111 -7 -354q-4 -146 -34.5 -252t-76.5 -168t-117 -98t-142.5 -48t-167.5 -12q-69 0 -137 7t-101 13l-33 7z" />
<glyph unicode="K" horiz-adv-x="1406" d="M72 1202l524 19v-541q116 4 157.5 71t41.5 210q0 46 -5.5 100.5t-11.5 85.5l-6 31l475 39v-19q0 -136 -14 -399q-4 -79 -33 -142.5t-67 -98.5t-76 -58.5t-64 -31.5l-26 -7q3 -14 8 -23q53 -63 192 -63q36 0 74 4t58 8l20 4l16 -440q-89 -12 -164 -12q-99 0 -179 20 t-130.5 50t-87 75.5t-54.5 84t-28.5 89t-12 78t-1.5 61.5h-76v-397h-489z" />
<glyph unicode="L" horiz-adv-x="1120" d="M72 1221h546l-30 -879l426 20l35 -362h-916z" />
<glyph unicode="M" horiz-adv-x="1503" d="M72 0v1188l520 33l182 -557l137 557h521v-1221h-371l20 465h-51l-135 -465h-281l-125 465h-34v-465h-383z" />
<glyph unicode="N" horiz-adv-x="1273" d="M72 2v1202l368 17l305 -478v478h457v-1196l-350 -23l-371 528l25 -510z" />
<glyph unicode="O" d="M72 649q0 35 3 72.5t17 99.5t38 116t70.5 113t109 100.5t159.5 69t217 27.5q118 0 212 -28.5t153 -69.5t102 -107t63 -120t31.5 -132t13 -118.5t1.5 -102.5q0 -26 -2.5 -57t-15.5 -90t-35 -111.5t-66.5 -111.5t-104 -101t-153.5 -70t-209 -28q-146 0 -262 49.5t-190 137 t-113 205t-39 257.5zM489 625q0 -15 1.5 -35t6 -63t17 -80t31.5 -74.5t52.5 -59.5t76.5 -22q176 0 176 348q0 36 -2.5 71t-13 85t-28 86t-51.5 62t-79 26q-40 0 -72 -16.5t-51.5 -45.5t-33 -62.5t-19.5 -75.5t-8.5 -75t-2.5 -69z" />
<glyph unicode="P" horiz-adv-x="1380" d="M72 1229q19 5 59 13.5t198.5 22t356.5 13.5q335 0 479 -110.5t144 -366.5q0 -238 -136.5 -371t-427.5 -133q-78 0 -143 8l16 -303h-503zM600 967l23 -416q14 -2 32 -2q24 0 48.5 4t56 17t55 35t39.5 62t16 93q0 120 -52.5 170.5t-127.5 50.5q-46 0 -90 -14z" />
<glyph unicode="Q" horiz-adv-x="1402" d="M72 662q0 37 3 75.5t18 104t40 122.5t74.5 119.5t115.5 106.5t169.5 73t230.5 29q125 0 224 -30t161 -73.5t107.5 -113.5t67 -127.5t33.5 -139.5t13.5 -125t1.5 -108q0 -29 -3 -63t-17.5 -97.5t-39.5 -120t-75 -120t-117 -106.5l178 -357q-487 -12 -487 -18q0 -3 -29 87 t-61 193q-147 5 -263.5 59.5t-191.5 147t-114 215t-39 267.5zM514 633q0 -13 0.5 -28.5t4.5 -52.5t11 -69.5t21.5 -71t34.5 -66t52 -46t71 -18.5q186 0 186 368q0 31 -2 61t-7.5 73t-18.5 78t-32.5 67.5t-51 50.5t-72.5 18q-197 0 -197 -364z" />
<glyph unicode="R" horiz-adv-x="1376" d="M72 1200q6 3 19.5 7t63 15t110 19.5t164.5 15.5t222 7q315 0 451.5 -108.5t136.5 -360.5q0 -334 -244 -447q38 -59 154 -59q36 0 75 5.5t60 11.5l21 5v-391l-187 -10q-96 0 -174 32.5t-124 76.5t-80 103t-47.5 99.5t-20.5 77.5q-46 0 -99 6l13 -313h-475zM553 967 l22 -416q15 -2 33 -2q24 0 48.5 4t56 17t55 35t39.5 62t16 93q0 120 -52.5 170.5t-127.5 50.5q-46 0 -90 -14z" />
<glyph unicode="S" horiz-adv-x="1132" d="M74 823q0 79 20 141t66.5 113t121 84.5t186.5 51.5t261 18q167 0 348 -19v-428q-1 0 -17.5 2t-43.5 5t-59.5 5.5t-73 4.5t-76.5 2q-223 0 -223 -74q0 -12 1.5 -18t8 -14.5t23.5 -14t45 -8.5q31 -1 49.5 -2t57 -4.5t65.5 -9t65 -17t64.5 -26t55.5 -37.5t46.5 -51t29 -67 t11.5 -85q0 -53 -10 -98t-26 -78t-42.5 -61t-51 -47t-61 -34t-64 -23.5t-68 -16t-64.5 -10.5t-62 -7q-33 -4 -112 -4q-84 0 -196.5 5.5t-183.5 10.5l-71 6v388q229 -37 385 -37q137 0 142 37q0 27 -15.5 42t-33.5 18t-44 5.5t-36 5.5q-3 1 -42.5 6t-82 12.5t-97 31 t-96.5 57.5t-71 96.5t-29 142.5z" />
<glyph unicode="T" horiz-adv-x="1241" d="M72 831v367v25h1097v-359h-276v-864h-494l-30 831h-297z" />
<glyph unicode="U" horiz-adv-x="1327" d="M51 893q0 76 5.5 150t10.5 111l5 36h463q-29 -172 -29 -350q0 -361 153 -361q152 0 152 342q0 47 -3 97.5t-7.5 95.5t-9 77.5t-9 63.5t-4.5 33q1 0 19 2l411 31q5 -23 13.5 -64t21 -160t12.5 -227q0 -79 -6.5 -152t-24 -152t-45 -145t-72 -126.5t-103 -102.5t-141 -67 t-181.5 -25q-112 0 -205 31.5t-157 83.5t-113 126t-78 152t-47 169.5t-24.5 169.5t-6.5 161z" />
<glyph unicode="V" horiz-adv-x="1490" d="M72 1221h508l157 -697l156 697h526l-446 -1223h-506z" />
<glyph unicode="W" horiz-adv-x="1503" d="M49 1221h572l-27 -617l88 168l74 -4l75 4l66 -160v609h506v-1215h-510l-150 422l-127 -426h-489z" />
<glyph unicode="X" horiz-adv-x="1540" d="M72 0l424 639l-351 582h527l145 -215l164 215l487 -25l-434 -578l336 -618h-465l-149 246l-197 -246h-487z" />
<glyph unicode="Y" horiz-adv-x="1404" d="M102 922q0 122 31 299h436q0 -94 -0.5 -165t-1 -106.5t-1 -57.5t-1 -32.5t-0.5 -15.5q0 -34 5 -65t17.5 -65t40 -54.5t66.5 -20.5h13q39 0 67 20.5t40.5 54.5t18 65.5t5.5 64.5q0 2 -1 28.5t-2 113t-1 235.5h436l8 -52q9 -52 12.5 -77t8 -75.5t4.5 -94.5q0 -79 -9 -152 t-34 -152.5t-64 -142.5t-105.5 -117t-152.5 -82v-278h-469v278q-87 28 -154 82t-106.5 117t-64.5 143t-33.5 152t-8.5 152z" />
<glyph unicode="Z" horiz-adv-x="1181" d="M72 322l467 499h-445v387h1016v-391l-520 -465l457 -16v-352h-943z" />
<glyph unicode="[" horiz-adv-x="888" d="M102 106v875q0 72 1.5 123.5t8 121.5t18.5 119t34.5 102t53.5 85t78 53t107 21q4 -1 388 -19v-364q-52 4 -109 4q-134 0 -141 -31q-8 -31 -24.5 -411t-16.5 -560q0 -84 4 -88q8 -6 80 -15.5t140 -15.5l67 -6l-46 -336q-76 -8 -176 -8q-119 0 -203 15.5t-135.5 42.5 t-80 73t-38.5 96t-10 123z" />
<glyph unicode="\" horiz-adv-x="999" d="M102 1417h457l338 -1464h-434z" />
<glyph unicode="]" horiz-adv-x="888" d="M102 100q269 23 287 37q4 4 4 88q0 180 -16.5 560t-24.5 411q-7 31 -141 31l-109 -4v364l387 19q60 0 107 -21t78.5 -53t54 -85t34.5 -102t18.5 -119t8 -121.5t1.5 -123.5v-875q0 -73 -10 -123t-38.5 -96t-80 -73t-135.5 -42.5t-203 -15.5q-44 0 -88.5 2t-66.5 4l-22 2z " />
<glyph unicode="^" horiz-adv-x="600" d="M102 1327q5 14 25.5 64t38 94t18.5 47h232q2 -7 39 -98t43 -107h-142l-57 148l-51 -150q-132 0 -146 2z" />
<glyph unicode="_" horiz-adv-x="1081" d="M102 -88v315h877v-315h-877z" />
<glyph unicode="`" horiz-adv-x="456" d="M72 1536h229q72 -172 84 -207q-14 -2 -63 -2h-103z" />
<glyph unicode="a" horiz-adv-x="1560" d="M72 410q60 4 103.5 17t63 29t31 31.5t12.5 26.5l1 10l151 697h586q208 -723 237 -756q20 -23 146 -23l65 2l21 -444h-422l18 143h-630v-143h-359zM637 510h225l-92 397h-57z" />
<glyph unicode="b" horiz-adv-x="1310" d="M82 1155q5 5 16 12.5t52 27.5t89.5 35t131 27.5t174.5 12.5q130 0 229 -14.5t181.5 -49t126.5 -99t44 -157.5q0 -51 -11 -94.5t-28 -72t-38 -51t-42 -34.5t-38 -19.5t-28 -10.5l-11 -2h6q14 0 31.5 -1.5t48.5 -9t59 -19.5t59.5 -36.5t54 -57t37.5 -84t15 -114.5 q0 -70 -23 -127.5t-60 -95t-90.5 -66t-106 -44t-117 -24.5t-112 -11.5t-101.5 -2.5q-94 0 -223 15t-211 30l-82 15q-19 921 -33 1122zM485 971l27 -240q11 -2 27 -2q30 0 58.5 5t64 18t57.5 44.5t22 77.5v13q-10 110 -125 110q-29 0 -62 -6.5t-51 -12.5zM522 219 q33 -6 76 -6q31 0 59 3.5t60 14.5t55.5 29t39 49t15.5 72q0 145 -178 145q-18 0 -37.5 -1.5t-34.5 -4t-27 -5t-19.5 -4t-8.5 -1.5v-291z" />
<glyph unicode="c" horiz-adv-x="1280" d="M102 580q0 112 24.5 205t65.5 158t100.5 115t123 80.5t140 49.5t145 26t143.5 6q150 0 334 -34v-484q-104 0 -183 0.5t-118.5 1t-64 1.5t-35.5 1.5t-17 0.5q-37 0 -72 -5.5t-73.5 -20t-61.5 -45t-23 -73.5q0 -38 12.5 -65t29.5 -41.5t46.5 -22t52 -9t56.5 -1.5 q90 0 203 9t180 19l68 9v-434q-146 -31 -328 -31q-73 0 -141 6.5t-144.5 23.5t-141.5 44.5t-125.5 73.5t-102.5 105t-67.5 144t-25.5 187z" />
<glyph unicode="d" horiz-adv-x="1280" d="M98 27v249l4 910q184 35 334 35q75 0 143.5 -7t145 -26t140 -49.5t123 -80.5t100.5 -115t65.5 -158t24.5 -205q0 -102 -25.5 -187t-67.5 -144t-102.5 -105t-125.5 -73.5t-141.5 -44.5t-144.5 -23.5t-141 -6.5q-51 0 -103.5 3t-91.5 8t-70 9.5t-49 7.5zM477 410h17 q21 0 41 2t50 7.5t54 19t47.5 33.5t38 53.5t16.5 76.5l2 21q-3 97 -54 138.5t-122 47.5h-14q-17 0 -35 -2t-29 -4t-12 -2v-391z" />
<glyph unicode="e" horiz-adv-x="1165" d="M72 1219h977v-330h-492v-152l424 17l-12 -312h-412v-145h516l21 -291h-979z" />
<glyph unicode="f" horiz-adv-x="1120" d="M72 1219h977v-330h-492v-199l424 17l-12 -312h-389v-393h-465z" />
<glyph unicode="g" horiz-adv-x="1302" d="M102 586q0 110 24.5 201t65.5 155t100.5 113.5t123.5 79.5t140 49t144.5 26t143.5 7q138 0 342 -35v-410q-136 29 -281 29q-334 0 -334 -203q0 -53 15.5 -93t36.5 -60.5t49.5 -33.5t46 -16t35.5 -4h12l-8 125q69 14 176 14q145 0 264 -14v-594h-405l-5 90 q-101 3 -190 18.5t-183 55.5t-160.5 101t-109.5 163.5t-43 235.5z" />
<glyph unicode="h" horiz-adv-x="1357" d="M72 1221h528v-467h172v467h514v-1221h-514v420h-184v-420h-465z" />
<glyph unicode="i" horiz-adv-x="643" d="M72 1331l170 35l69 119l49 -121l211 -37l-137 -108l15 -132l-154 58l-135 -58l30 154zM86 1030h473v-1030h-430z" />
<glyph unicode="j" horiz-adv-x="989" d="M72 446q40 -12 116 -12q51 0 84.5 5t59 20.5t39.5 37t23 62t11.5 87t2.5 120.5q0 97 -8 214t-16 185l-9 68v-12h536q7 -99 7 -289q0 -111 -7 -354q-4 -146 -34.5 -252t-76.5 -168t-117 -98t-142.5 -48t-167.5 -12q-69 0 -137 7t-101 13l-33 7z" />
<glyph unicode="k" horiz-adv-x="1406" d="M72 1202l524 19v-541q116 4 157.5 71t41.5 210q0 46 -5.5 100.5t-11.5 85.5l-6 31l475 39v-19q0 -136 -14 -399q-4 -79 -33 -142.5t-67 -98.5t-76 -58.5t-64 -31.5l-26 -7q3 -14 8 -23q53 -63 192 -63q36 0 74 4t58 8l20 4l16 -440q-89 -12 -164 -12q-99 0 -179 20 t-130.5 50t-87 75.5t-54.5 84t-28.5 89t-12 78t-1.5 61.5h-76v-397h-489z" />
<glyph unicode="l" horiz-adv-x="1120" d="M72 1221h546l-30 -879l426 20l35 -362h-916z" />
<glyph unicode="m" horiz-adv-x="1503" d="M72 0v1188l520 33l182 -557l137 557h521v-1221h-371l20 465h-51l-135 -465h-281l-125 465h-34v-465h-383z" />
<glyph unicode="n" horiz-adv-x="1273" d="M72 2v1202l368 17l305 -478v478h457v-1196l-350 -23l-371 528l25 -510z" />
<glyph unicode="o" d="M72 649q0 35 3 72.5t17 99.5t38 116t70.5 113t109 100.5t159.5 69t217 27.5q118 0 212 -28.5t153 -69.5t102 -107t63 -120t31.5 -132t13 -118.5t1.5 -102.5q0 -26 -2.5 -57t-15.5 -90t-35 -111.5t-66.5 -111.5t-104 -101t-153.5 -70t-209 -28q-146 0 -262 49.5t-190 137 t-113 205t-39 257.5zM498 621q0 -10 0.5 -21.5t4.5 -38.5t10 -51.5t20 -53t32.5 -48.5t49 -34t67.5 -14q176 0 176 273q0 29 -2.5 56t-13 66t-28 67t-51.5 48.5t-79 20.5q-186 0 -186 -270z" />
<glyph unicode="p" horiz-adv-x="1380" d="M72 1229q19 5 59 13.5t198.5 22t356.5 13.5q335 0 479 -110.5t144 -366.5q0 -238 -136.5 -371t-427.5 -133q-78 0 -143 8l16 -303h-503zM600 967l23 -416q14 -2 32 -2q24 0 48.5 4t56 17t55 35t39.5 62t16 93q0 120 -52.5 170.5t-127.5 50.5q-46 0 -90 -14z" />
<glyph unicode="q" horiz-adv-x="1402" d="M72 662q0 37 3 75.5t18 104t40 122.5t74.5 119.5t115.5 106.5t169.5 73t230.5 29q125 0 224 -30t161 -73.5t107.5 -113.5t67 -127.5t33.5 -139.5t13.5 -125t1.5 -108q0 -29 -3 -63t-17.5 -97.5t-39.5 -120t-75 -120t-117 -106.5l178 -357q-487 -12 -487 -18q0 -3 -29 87 t-61 193q-147 5 -263.5 59.5t-191.5 147t-114 215t-39 267.5zM514 633q0 -13 0.5 -28.5t4.5 -52.5t11 -69.5t21.5 -71t34.5 -66t52 -46t71 -18.5q186 0 186 368q0 31 -2 61t-7.5 73t-18.5 78t-32.5 67.5t-51 50.5t-72.5 18q-197 0 -197 -364z" />
<glyph unicode="r" horiz-adv-x="1376" d="M72 1200q6 3 19.5 7t63 15t110 19.5t164.5 15.5t222 7q315 0 451.5 -108.5t136.5 -360.5q0 -334 -244 -447q38 -59 154 -59q36 0 75 5.5t60 11.5l21 5v-391l-187 -10q-96 0 -174 32.5t-124 76.5t-80 103t-47.5 99.5t-20.5 77.5q-46 0 -99 6l13 -313h-475zM553 967 l22 -416q15 -2 33 -2q24 0 48.5 4t56 17t55 35t39.5 62t16 93q0 120 -52.5 170.5t-127.5 50.5q-46 0 -90 -14z" />
<glyph unicode="s" horiz-adv-x="1132" d="M74 823q0 79 20 141t66.5 113t121 84.5t186.5 51.5t261 18q167 0 348 -19v-428q-1 0 -17.5 2t-43.5 5t-59.5 5.5t-73 4.5t-76.5 2q-223 0 -223 -74q0 -12 1.5 -18t8 -14.5t23.5 -14t45 -8.5q31 -1 49.5 -2t57 -4.5t65.5 -9t65 -17t64.5 -26t55.5 -37.5t46.5 -51t29 -67 t11.5 -85q0 -53 -10 -98t-26 -78t-42.5 -61t-51 -47t-61 -34t-64 -23.5t-68 -16t-64.5 -10.5t-62 -7q-33 -4 -112 -4q-84 0 -196.5 5.5t-183.5 10.5l-71 6v388q229 -37 385 -37q137 0 142 37q0 27 -15.5 42t-33.5 18t-44 5.5t-36 5.5q-3 1 -42.5 6t-82 12.5t-97 31 t-96.5 57.5t-71 96.5t-29 142.5z" />
<glyph unicode="t" horiz-adv-x="1241" d="M72 831v367v25h1097v-359h-276v-864h-494l-30 831h-297z" />
<glyph unicode="u" horiz-adv-x="1327" d="M51 893q0 76 5.5 150t10.5 111l5 36h463q-29 -172 -29 -350q0 -361 153 -361q152 0 152 342q0 47 -3 97.5t-7.5 95.5t-9 77.5t-9 63.5t-4.5 33q1 0 19 2l411 31q5 -23 13.5 -64t21 -160t12.5 -227q0 -79 -6.5 -152t-24 -152t-45 -145t-72 -126.5t-103 -102.5t-141 -67 t-181.5 -25q-112 0 -205 31.5t-157 83.5t-113 126t-78 152t-47 169.5t-24.5 169.5t-6.5 161z" />
<glyph unicode="v" horiz-adv-x="1490" d="M72 1221h508l157 -697l156 697h526l-446 -1223h-506z" />
<glyph unicode="w" horiz-adv-x="1503" d="M49 1221h572l-27 -617l88 168l74 -4l75 4l66 -160v609h506v-1215h-510l-150 422l-127 -426h-489z" />
<glyph unicode="x" horiz-adv-x="1540" d="M72 0l424 639l-351 582h527l145 -215l164 215l487 -25l-434 -578l336 -618h-465l-149 246l-197 -246h-487z" />
<glyph unicode="y" horiz-adv-x="1404" d="M102 956q0 122 31 299h436q0 -94 -0.5 -165t-1 -106.5t-1 -57t-1 -32t-0.5 -15.5q0 -34 5 -65t17.5 -65t40 -54.5t66.5 -20.5h13q39 0 67 20.5t40.5 54.5t18 65.5t5.5 64.5q0 2 -1 28t-2 112.5t-1 235.5h436l8 -52q9 -52 12.5 -77t8 -75.5t4.5 -94.5q0 -79 -9 -151.5 t-34 -152t-64 -143t-105.5 -117t-152.5 -81.5v-278h-469v278q-108 35 -184 106t-114 164t-53.5 183t-15.5 192z" />
<glyph unicode="z" horiz-adv-x="1181" d="M72 322l467 499h-445v387h1016v-391l-520 -465l457 -16v-352h-943z" />
<glyph unicode="{" horiz-adv-x="999" d="M102 516v283q5 0 13.5 1t29.5 7.5t37 17.5t29.5 34.5t13.5 55.5v19q-2 15 -12 67.5t-17.5 111.5t-7.5 112q0 405 541 405q97 0 168 -20l-31 -350q-35 4 -82 4q-184 0 -196 -101v-26q0 -35 13 -146t13 -168q0 -131 -55 -168q55 -29 55 -163q0 -56 -13 -166.5t-13 -147.5 v-26q12 -101 196 -101l82 4l31 -348q-71 -20 -168 -20q-541 0 -541 403q0 54 7.5 112.5t17.5 110.5t12 66v22q0 23 -7 41.5t-17.5 30t-23.5 20.5t-26.5 13t-24 6.5t-17.5 3.5h-7z" />
<glyph unicode="|" horiz-adv-x="616" d="M72 1300h473v-1339h-430z" />
<glyph unicode="}" horiz-adv-x="999" d="M102 -293l31 348q35 -4 82 -4q185 0 197 101v26q0 37 -13.5 147.5t-13.5 166.5q0 134 55 163q-55 37 -55 168q0 57 13.5 168t13.5 146v26q-12 101 -197 101l-82 -4l-31 350q71 20 168 20q541 0 541 -405q0 -53 -7.5 -112t-17.5 -111.5t-12 -67.5v-19q0 -32 12.5 -55.5 t31 -34.5t36.5 -17.5t30 -7.5l13 -1v-283q-5 0 -13.5 -1t-29.5 -7.5t-37 -17.5t-29.5 -34.5t-13.5 -54.5v-22q2 -14 12 -66t17.5 -110.5t7.5 -112.5q0 -403 -541 -403q-97 0 -168 20z" />
<glyph unicode="~" horiz-adv-x="987" d="M102 1341v48q0 109 56.5 161t154.5 52h19q57 0 141.5 -40.5t104.5 -41.5q49 2 49 82l250 -15q8 -33 8 -94q0 -50 -19.5 -86t-53.5 -55.5t-71 -28t-79 -8.5q-46 0 -134 32.5t-137 32.5q-34 0 -55.5 -16t-25.5 -32l-5 -15z" />
<glyph unicode="&#xa1;" horiz-adv-x="755" d="M102 -119l35 850h455l61 -850h-551zM156 1010q0 87 62 149t149 62t147.5 -62t60.5 -149t-60.5 -148t-147.5 -61q-88 0 -149.5 61.5t-61.5 147.5z" />
<glyph unicode="&#xa2;" horiz-adv-x="1331" d="M72 649q0 32 2.5 65.5t13.5 89t29.5 105t55.5 105.5t85.5 99t125 77.5t169.5 48.5v127h197v-121q104 -7 187 -39t136.5 -77t91 -106t55.5 -119.5t25 -123.5q-266 -37 -401 -53q-17 169 -94 219v-641q78 38 94 189l416 43q-2 -34 -7.5 -69t-20 -87t-37 -97.5t-62 -95.5 t-90 -87t-126.5 -64t-167 -35v-92h-154l-4 94q-168 18 -286.5 107.5t-176 227t-57.5 310.5zM489 625q0 -35 2 -74t21 -115t53 -112v600q-76 -80 -76 -299z" />
<glyph unicode="&#xa4;" horiz-adv-x="1181" d="M102 598q0 30 4 63t15.5 82t39 100t68.5 91l-125 162l244 43l51 -111q81 23 168 23q142 0 234 -50l61 119l217 -43l-125 -178q56 -78 56 -209q0 -31 -3 -82.5t-3 -68.5q0 -106 -52 -215l115 -218l-242 -49l-51 90q-87 -41 -215 -41q-87 0 -164 25l-28 -55l-263 18 l123 144q-125 131 -125 360zM418 580q0 -15 1 -34.5t8.5 -61.5t21 -74t42 -57t66.5 -25q135 0 135 262q0 36 -4.5 71t-16.5 79.5t-41 72t-71 27.5q-141 0 -141 -260z" />
<glyph unicode="&#xa5;" horiz-adv-x="1566" d="M72 1221l538 8l211 -361l234 353h440l-448 -658h153v-321h-170v-230h-481v230h-195v321h154z" />
<glyph unicode="&#xa7;" horiz-adv-x="985" d="M102 211l197 117q84 -78 145 -101q20 -8 60 -8q66 0 82 37q2 2 2 8q0 58 -266 109q-56 10 -100 36t-69 59t-38 68t-13 68q0 39 20.5 91t70.5 96q-91 69 -91 176q1 26 7 53.5t30 69t63 72.5t113 54t172 23q96 0 176.5 -21.5t126.5 -52t79 -61.5t45 -52l12 -22l-264 -92 q-72 80 -168 80q-38 0 -54 -12q-10 -7 -10 -21q0 -57 227 -88q87 -12 152 -41t99.5 -64.5t50.5 -69.5t16 -65q0 -137 -82 -215q82 -68 82 -147q0 -24 -1.5 -43t-10 -53t-23.5 -60.5t-45.5 -57t-72 -50.5t-107 -33.5t-146.5 -13.5t-150.5 12.5t-116 32.5t-83.5 44.5 t-58.5 48.5t-35.5 44t-19 32zM430 623q0 -22 31 -39q14 -4 43 -4q64 0 82 38q2 2 2 9q0 1 -1 3.5t-1 4.5q-48 22 -92 22q-38 0 -54 -12q-10 -10 -10 -22z" />
<glyph unicode="&#xa8;" horiz-adv-x="575" d="M72 1231q0 38 26 65t64 27t65 -27t27 -65t-27 -64t-65 -26t-64 26t-26 64zM373 1202q0 28 18.5 47t44.5 19q28 0 48 -19t20 -47q0 -27 -20 -46t-48 -19q-26 0 -44.5 18.5t-18.5 46.5z" />
<glyph unicode="&#xa9;" horiz-adv-x="1429" d="M102 618q0 124 48.5 238t130.5 196t196 130.5t238 48.5q166 0 307 -82t223 -223.5t82 -307.5t-82 -307t-223 -223t-307 -82t-307.5 82t-223.5 223t-82 307zM330 637q0 -186 100.5 -302t286.5 -116q93 0 164 28.5t109 67t62.5 91t32 87.5t9.5 70l-269 -26 q-6 -65 -30.5 -98t-77.5 -33q-41 0 -68 29t-36.5 74t-12 68.5t-2.5 43.5q0 221 119 221q94 0 108 -156l258 35q-6 56 -25.5 104.5t-59 94.5t-110 73t-165.5 27q-77 0 -139 -17.5t-102 -44.5t-70 -65t-45 -72.5t-24 -74t-11 -63t-2 -46.5z" />
<glyph unicode="&#xaa;" horiz-adv-x="735" d="M102 918q22 1 38.5 6t24 11t12 12t5.5 10v4l56 260h219q80 -271 90 -283q8 -8 53 -8h25l8 -166h-158l6 53h-235v-53h-133zM313 954h86l-34 150h-23z" />
<glyph unicode="&#xab;" horiz-adv-x="1273" d="M102 590q1 0 50.5 82t99 168.5t49.5 95.5h1h1h1h1h1h1h1h1h1h1h1h1h1h1h1h1h1h1h1h1h1h1h1h1h1h1h1h1h1h1h1h1h1h1h1h1h1h1h1h1h1h1h1h1h1h1h1h1h1h1h1h1h1h1h1h1h1h1h1h1h1h1h1h1h2h1h1h1h1h1h1h1h1h1h2h1h1h1h1h1h1h2h1h1h1h1h2h1h1h1h1h2h1h1h1h2h1h1h1h2h1h1h1h2h1h1 h2h1h1h2h1h1h2h1h1h2h1h1h2h1h1h2h1h2h1h1h2h1h2h1h1h2h1h2h1h2h1h2h1h1h2h1h2h1h2h1h2h1h2h1h2h1h2h1h2h1h2h1h2h2h1h2h1h2h1h2h1h2h2h1h2h1h2h2h1h2h1h2h2h1h2h2h1h2h1h2h2h1h2h2h1h2h2h1h2h2h1h2h2h2h1h2h2h1h2h2h2h1h2h2h2h1h2h2h2h1h2h2h2h1h2h2h2h2h1h2h2h2h2h1h2h2h2 h2h2h1h2h2h2h2h2h2h1h2h2h2h9l-194 -367q3 -6 115 -165.5t116 -159.5q-8 -2 -78 -2q-44 0 -158 1t-126 1q0 -3 -55.5 83.5t-110.5 174.5zM588 590q1 0 50.5 82t98.5 168.5t49 95.5h1h1h1h1h1h1h1h1h1h1h1h1h1h1h1h1h1h1h1h1h1h1h1h1h1h1h1h1h1h1h1h1h1h1h1h1h1h1h1h1h1h1h1 h1h1h1h1h1h1h1h1h1h1h1h1h1h1h1h1h1h1h1h1h1h1h1h2h1h1h1h1h1h1h1h1h2h1h1h1h1h1h1h2h1h1h1h1h2h1h1h1h1h2h1h1h1h2h1h1h1h2h1h1h2h1h1h1h2h1h1h2h1h1h2h1h1h2h1h1h2h1h2h1h1h2h1h2h1h1h2h1h2h1h1h2h1h2h1h2h1h2h1h2h1h1h2h1h2h1h2h1h2h1h2h1h2h2h1h2h1h2h1h2h1h2h2h1h2h1h2 h1h2h2h1h2h1h2h2h1h2h1h2h2h1h2h2h1h2h2h1h2h2h1h2h2h1h2h2h1h2h2h2h1h2h2h1h2h2h2h1h2h2h2h1h2h2h2h1h2h2h2h2h1h2h2h2h1h2h2h2h2h2h1h2h2h2h2h2h1h2h2h2h2h2h2h1h2h9l-195 -367q3 -6 115 -165.5t116 -159.5q-8 -2 -77 -2q-44 0 -158.5 1t-126.5 1q0 -3 -55.5 83.5 t-110.5 174.5z" />
<glyph unicode="&#xad;" horiz-adv-x="757" d="M102 475v307h553v-307h-553z" />
<glyph unicode="&#xae;" horiz-adv-x="1429" d="M102 618q0 124 48.5 238t130.5 196t196 130.5t238 48.5q166 0 307 -82t223 -223.5t82 -307.5t-82 -307t-223 -223t-307 -82t-307.5 82t-223.5 223t-82 307zM387 268h299l-6 183q8 -1 28 -3t29 -2q4 -21 12 -45t27.5 -58t46 -60t72 -45t100.5 -19l109 6v230 q-43 -15 -90 -15q-67 0 -88 35q141 68 141 260q0 147 -79 210t-263 63q-109 0 -193.5 -9t-114.5 -19l-30 -9v-703zM668 836q28 8 53 8q43 0 73.5 -30t30.5 -99q0 -38 -13.5 -64.5t-35 -38t-39.5 -16t-37 -4.5l-20 2z" />
<glyph unicode="&#xb2;" horiz-adv-x="573" d="M102 858q6 5 16.5 13t37.5 31t47.5 44.5t37.5 46.5t17 43v6q-5 31 -45 31q-18 0 -40.5 -6t-36.5 -12l-13 -6l-21 153q90 19 152 19q91 0 141 -35.5t58 -98.5v-14q0 -46 -30.5 -96t-60.5 -77l-30 -26l139 9v-148h-358z" />
<glyph unicode="&#xb3;" horiz-adv-x="544" d="M102 897q50 -6 99 -6q84 0 84 22q-2 29 -92 29l-54 -2l-10 104q66 -2 109 -6h4q18 0 29 7t13 15l1 7q-5 27 -74 27q-21 0 -46 -3t-39 -5l-15 -3l-9 129q76 13 129 13q98 0 154.5 -32t56.5 -91q0 -29 -8.5 -52t-21 -36t-25 -22t-21.5 -12l-8 -3q36 -6 60 -30.5t24 -59.5 q0 -123 -225 -123l-104 6z" />
<glyph unicode="&#xb4;" horiz-adv-x="456" d="M72 1327l84 207h229l-147 -209q-152 0 -166 2z" />
<glyph unicode="&#xb6;" horiz-adv-x="1441" d="M102 801q0 256 144 366.5t479 110.5q198 0 351.5 -12t207.5 -24l55 -13l-43 -1227h-503l16 303q-52 -8 -115 -8q-10 -95 -10 -213q0 -72 2 -72h-162q15 180 21 291q-228 27 -335.5 156.5t-107.5 341.5z" />
<glyph unicode="&#xb8;" horiz-adv-x="552" d="M102 -201q40 -10 93 -10q88 0 88 53q0 64 -109 64l-47 -4v118h158l-23 -69q51 -1 89 -15t56.5 -32t29 -42.5t12.5 -37.5t2 -25q0 -62 -25 -104.5t-67 -62.5t-81.5 -27.5t-84.5 -7.5q-24 0 -46.5 1.5t-33.5 3.5l-11 1v3v3v3v3v3v3v3v3v3v3v3v3v3v3v3v3v3v3v3v3v3v3v3v3v3 v3v3v3v3v3v3v3v3v3v3v3v3v3v3v3v3v3v3v3v3v3v3v3v3v2v3v3v3v3v3v3v3v3v3v3v3v2v3v9z" />
<glyph unicode="&#xb9;" horiz-adv-x="466" d="M102 1083l11 156v-6h252v-465h-187l25 322z" />
<glyph unicode="&#xba;" horiz-adv-x="548" d="M102 1479q0 71 51 121.5t121 50.5t121 -50.5t51 -121.5t-51 -121.5t-121 -50.5t-121 50.5t-51 121.5zM233 1485q0 -19 12 -31t31 -12t32.5 12.5t13.5 30.5q0 19 -13.5 32t-32.5 13t-31 -13t-12 -32z" />
<glyph unicode="&#xbb;" horiz-adv-x="1273" d="M102 930q8 2 78 2q44 0 158.5 -1t126.5 -1q0 3 55.5 -83.5t110.5 -174.5l55 -88q-1 0 -50.5 -82t-99 -168.5t-49.5 -95.5h-1h-1h-1h-1h-1h-1h-1h-1h-1h-1h-1h-1h-1h-1h-1h-1h-1h-1h-1h-1h-1h-1h-1h-1h-1h-1h-1h-1h-1h-1h-1h-1h-1h-1h-1h-1h-1h-1h-1h-1h-1h-1h-1h-1h-1h-1 h-1h-1h-1h-1h-1h-1h-1h-1h-1h-1h-1h-1h-1h-1h-1h-1h-1h-1h-2h-1h-1h-1h-1h-1h-1h-1h-1h-1h-2h-1h-1h-1h-1h-1h-1h-2h-1h-1h-1h-1h-2h-1h-1h-1h-1h-2h-1h-1h-1h-2h-1h-1h-1h-2h-1h-1h-1h-2h-1h-1h-2h-1h-1h-2h-1h-1h-2h-1h-1h-2h-1h-1h-2h-1h-1h-2h-1h-2h-1h-1h-2h-1h-2h-1 h-1h-2h-1h-2h-1h-2h-1h-2h-1h-1h-2h-1h-2h-1h-2h-1h-2h-1h-2h-1h-2h-1h-2h-1h-2h-1h-2h-1h-2h-2h-1h-2h-1h-2h-1h-2h-1h-2h-2h-1h-2h-1h-2h-2h-1h-2h-1h-2h-2h-1h-2h-2h-1h-2h-1h-2h-2h-1h-2h-2h-1h-2h-2h-1h-2h-2h-1h-2h-2h-2h-1h-2h-2h-1h-2h-2h-2h-1h-2h-2h-2h-1h-2h-2 h-2h-1h-2h-2h-2h-1h-2h-2h-2h-2h-1h-2h-2h-2h-2h-1h-2h-2h-2h-2h-2h-1h-2h-2h-2h-2h-2h-2h-1h-2h-2h-2h-9l195 366q-3 6 -115.5 166t-116.5 160zM588 930q8 2 78 2q44 0 158 -1t126 -1q0 3 55 -83.5t111 -174.5l55 -88q-1 0 -50.5 -82t-98.5 -168.5t-49 -95.5h-1h-1h-1h-1 h-1h-1h-1h-1h-1h-1h-1h-1h-1h-1h-1h-1h-1h-1h-1h-1h-1h-1h-1h-1h-1h-1h-1h-1h-1h-1h-1h-1h-1h-1h-1h-1h-1h-1h-1h-1h-1h-1h-1h-1h-1h-1h-1h-1h-1h-1h-1h-1h-1h-1h-1h-1h-1h-1h-1h-1h-1h-1h-1h-1h-2h-1h-1h-1h-1h-1h-1h-1h-1h-1h-2h-1h-1h-1h-1h-1h-1h-2h-1h-1h-1h-1h-2h-1 h-1h-1h-1h-2h-1h-1h-1h-2h-1h-1h-1h-2h-1h-1h-1h-2h-1h-1h-2h-1h-1h-2h-1h-1h-2h-1h-1h-2h-1h-1h-2h-1h-1h-2h-1h-2h-1h-1h-2h-1h-2h-1h-1h-2h-1h-2h-1h-2h-1h-2h-1h-1h-2h-1h-2h-1h-2h-1h-2h-1h-2h-1h-2h-1h-2h-1h-2h-1h-2h-1h-2h-2h-1h-2h-1h-2h-1h-2h-1h-2h-2h-1h-2h-1 h-2h-2h-1h-2h-1h-2h-2h-1h-2h-2h-1h-2h-1h-2h-2h-1h-2h-2h-1h-2h-2h-1h-2h-2h-1h-2h-2h-2h-1h-2h-2h-1h-2h-2h-2h-1h-2h-2h-2h-1h-2h-2h-2h-1h-2h-2h-2h-1h-2h-2h-2h-2h-1h-2h-2h-2h-2h-1h-2h-2h-2h-2h-2h-1h-2h-2h-2h-2h-2h-2h-1h-2h-2h-2h-9l194 366q-3 6 -115 166 t-116 160z" />
<glyph unicode="&#xbc;" horiz-adv-x="1689" d="M102 1051l17 206v-10h334v-618h-250l35 430zM420 -47l338 1464h456l-360 -1464h-434zM1077 211v426l236 12l-39 -282h86l16 282h211v-643h-241l12 205h-281z" />
<glyph unicode="&#xbd;" horiz-adv-x="1744" d="M102 1044l17 207v-10h334v-618h-250l35 430zM438 -47l338 1464h457l-361 -1464h-434zM1182 188q8 6 21 16t46.5 39.5t59 56t46.5 58.5t21 54v8q-5 37 -55 37q-23 0 -51.5 -7.5t-45.5 -14.5l-18 -7l-24 190q112 25 190 25q115 0 176.5 -44t69.5 -124q0 -3 1 -8.5t1 -7.5 q0 -37 -15.5 -76.5t-38 -69.5t-45 -54t-37.5 -37l-16 -13l174 10v-184h-448z" />
<glyph unicode="&#xbe;" horiz-adv-x="1927" d="M102 778q71 -6 134 -6q116 0 116 31q-2 39 -127 39l-71 -2l-13 141q89 -4 148 -8h6q24 0 38.5 9.5t16.5 18.5l2 9q-10 39 -102 39q-28 0 -62 -3.5t-54 -7.5l-19 -4l-13 174q112 17 177 17q134 0 209 -42.5t75 -123.5q0 -39 -11.5 -71t-28 -49.5t-33 -29.5t-28.5 -16 l-11 -4q48 -10 80 -42t32 -81q0 -168 -305 -168q-35 0 -69.5 2.5t-52.5 5.5l-17 2zM535 -47l337 1464h457l-360 -1464h-434zM1290 207v446l248 15l-43 -295h90l19 295h221v-674h-254l14 213h-295z" />
<glyph unicode="&#xbf;" horiz-adv-x="1191" d="M102 170q0 71 26 130t67.5 97t92 68t100.5 45.5t91.5 25.5t67.5 12l26 3q-5 54 -14 171t-14 173h438v-569l-170 -11q-345 -29 -348 -94q9 -55 256 -55q57 0 138 2.5t133 5.5l52 2l46 -364q-87 -19 -209 -30t-213 -11q-121 0 -220.5 22t-178.5 68t-123 124.5t-44 184.5z M504 1143q0 72 72.5 123t175.5 51t175 -51t72 -123t-72 -122t-175 -50t-175.5 50t-72.5 122z" />
<glyph unicode="&#xc0;" horiz-adv-x="1560" d="M72 410q60 4 103.5 17t63 29t31 31.5t12.5 26.5l1 10l151 697h586q208 -723 237 -756q20 -23 146 -23l65 2l21 -444h-422l18 143h-630v-143h-359zM508 1536h229q72 -172 84 -207q-14 -2 -63 -2h-103zM637 510h225l-92 397h-57z" />
<glyph unicode="&#xc1;" horiz-adv-x="1560" d="M72 410q60 4 103.5 17t63 29t31 31.5t12.5 26.5l1 10l151 697h586q208 -723 237 -756q20 -23 146 -23l65 2l21 -444h-422l18 143h-630v-143h-359zM610 1327l84 207h230l-148 -209q-152 0 -166 2zM637 510h225l-92 397h-57z" />
<glyph unicode="&#xc2;" horiz-adv-x="1560" d="M72 410q60 4 103.5 17t63 29t31 31.5t12.5 26.5l1 10l151 697h586q208 -723 237 -756q20 -23 146 -23l65 2l21 -444h-422l18 143h-630v-143h-359zM537 1327q5 14 25 64t37.5 94t18.5 47h232q2 -7 39 -98t43 -107h-141l-58 148l-51 -150q-131 0 -145 2zM637 510h225 l-92 397h-57z" />
<glyph unicode="&#xc3;" horiz-adv-x="1560" d="M72 410q60 4 103.5 17t63 29t31 31.5t12.5 26.5l1 10l151 697h586q208 -723 237 -756q20 -23 146 -23l65 2l21 -444h-422l18 143h-630v-143h-359zM317 1341v48q0 109 56.5 161t154.5 52h19q57 0 141.5 -40.5t104.5 -41.5q49 2 49 82l250 -15q8 -33 8 -94q0 -50 -19.5 -86 t-53.5 -55.5t-71 -28t-79 -8.5q-47 0 -134 32.5t-137 32.5q-34 0 -55.5 -16t-26.5 -32l-4 -15zM637 510h225l-92 397h-57z" />
<glyph unicode="&#xc4;" horiz-adv-x="1560" d="M72 410q60 4 103.5 17t63 29t31 31.5t12.5 26.5l1 10l151 697h586q208 -723 237 -756q20 -23 146 -23l65 2l21 -444h-422l18 143h-630v-143h-359zM399 1458q0 54 36.5 91.5t90.5 37.5t91.5 -37.5t37.5 -91.5t-37.5 -90.5t-91.5 -36.5t-90.5 36.5t-36.5 90.5zM637 510h225 l-92 397h-57zM823 1417q0 38 27 66t65 28t66.5 -28t28.5 -66t-28 -65t-67 -27q-38 0 -65 27t-27 65z" />
<glyph unicode="&#xc5;" horiz-adv-x="1560" d="M72 410q60 4 103.5 17t63 29t31 31.5t12.5 26.5l1 10l151 697h586q208 -723 237 -756q20 -23 146 -23l65 2l21 -444h-422l18 143h-630v-143h-359zM543 1479q0 71 50.5 121.5t121.5 50.5t121.5 -50.5t50.5 -121.5t-50.5 -121.5t-121.5 -50.5t-121.5 50.5t-50.5 121.5z M637 510h225l-92 397h-57zM674 1485q0 -19 12 -31t31 -12t32 12t13 31t-13 32t-32 13t-31 -13t-12 -32z" />
<glyph unicode="&#xc6;" horiz-adv-x="2490" d="M102 410q60 4 103.5 17t63 29t31 31.5t12.5 26.5l1 10l152 697h586q208 -723 237 -756q16 -19 105 -23l-27 777h977v-330h-492v-152l424 17l-12 -312h-412v-145h516l21 -297h-1290l18 143h-631v-143h-358zM668 510h225l-92 397h-58z" />
<glyph unicode="&#xc7;" horiz-adv-x="1280" d="M102 580q0 112 24.5 205t65.5 158t100.5 115t123 80.5t140 49.5t145 26t143.5 7q150 0 334 -35v-484q-104 0 -183 0.5t-118.5 1t-64 1.5t-35.5 1.5t-17 0.5q-37 0 -72 -5.5t-73.5 -20t-61.5 -45t-23 -73.5q0 -38 12.5 -65t29.5 -41.5t46.5 -22t52 -9t56.5 -1.5 q90 0 203 9t180 19l68 9v-434q-146 -31 -328 -31q-14 0 -39 1t-39 1l-4 -12q51 -1 89 -15t56 -32t28.5 -42.5t12.5 -37.5t2 -25q0 -62 -25 -104.5t-67 -62.5t-81.5 -28t-84.5 -8q-24 0 -46.5 1.5t-33.5 3.5l-10 2v196q40 -10 92 -10q88 0 88 53q0 64 -108 64l-47 -4v75 q-85 14 -158 38.5t-143.5 69.5t-120 106t-79.5 151.5t-30 202.5z" />
<glyph unicode="&#xc8;" horiz-adv-x="1165" d="M72 1219h977v-330h-492v-152l424 17l-12 -312h-412v-145h516l21 -291h-979zM356 1534h230q72 -172 84 -207q-14 -2 -64 -2h-102z" />
<glyph unicode="&#xc9;" horiz-adv-x="1165" d="M72 1219h977v-330h-492v-152l424 17l-12 -312h-412v-145h516l21 -291h-979zM434 1329l84 207h230l-148 -209q-152 0 -166 2z" />
<glyph unicode="&#xca;" horiz-adv-x="1165" d="M72 1219h977v-330h-492v-152l424 17l-12 -312h-412v-145h516l21 -291h-979zM322 1321q6 16 29.5 74.5t43.5 110t21 55.5h270q1 -2 44.5 -109.5t51.5 -130.5h-166l-65 172l-59 -174q-154 0 -170 2z" />
<glyph unicode="&#xcb;" horiz-adv-x="1165" d="M72 1219h977v-330h-492v-152l424 17l-12 -312h-412v-145h516l21 -291h-979zM281 1421q0 46 31.5 78.5t76.5 32.5q44 0 76.5 -32.5t32.5 -78.5q0 -44 -32 -75t-77 -31q-46 0 -77 31t-31 75zM639 1389q0 32 21.5 54.5t52.5 22.5q34 0 57 -22.5t23 -54.5q0 -34 -23 -56 t-57 -22q-31 0 -52.5 22.5t-21.5 55.5z" />
<glyph unicode="&#xcc;" horiz-adv-x="643" d="M-14 1454h325q103 -246 119 -295q-20 -2 -235 -2zM86 1030h473v-1030h-430z" />
<glyph unicode="&#xcd;" horiz-adv-x="643" d="M86 1030h473v-1030h-430zM170 1159q7 22 37 95.5t56 136.5l26 63h325l-208 -297q-216 0 -236 2z" />
<glyph unicode="&#xce;" horiz-adv-x="643" d="M41 1145q5 15 23.5 61.5t37 91.5t35.5 85.5t17 41.5h315q3 -10 54 -133.5t59 -146.5h-195l-78 203l-69 -205q-181 0 -199 2zM86 1030h473v-1030h-430z" />
<glyph unicode="&#xcf;" horiz-adv-x="643" d="M-23 1327q0 71 47.5 119.5t116.5 48.5q71 0 119.5 -48.5t48.5 -119.5q0 -69 -48.5 -116.5t-119.5 -47.5q-69 0 -116.5 47.5t-47.5 116.5zM86 1030h473v-1030h-430zM401 1276q0 50 34.5 84.5t82.5 34.5q50 0 86.5 -34.5t36.5 -84.5t-36.5 -85.5t-86.5 -35.5 q-48 0 -82.5 35t-34.5 86z" />
<glyph unicode="&#xd0;" horiz-adv-x="1300" d="M33 516v223h86v430q16 5 45.5 12.5t124 20t192.5 12.5q73 0 141 -6.5t142 -23.5t137 -44t122 -71t102 -100.5t70.5 -137t33.5 -176.5v-39q0 -113 -34 -205.5t-89.5 -155t-134 -110.5t-157.5 -74.5t-172 -43.5t-165.5 -22t-148.5 -5q-50 0 -97.5 2.5t-74.5 5.5l-27 2v506 h-96zM481 739h97v-223h-86l8 -151q14 0 29.5 1t46 6t57.5 14t57.5 27t52 42t36 62t14.5 85v25q-5 60 -27 102t-55.5 62.5t-66.5 29t-69 8.5q-11 0 -22 -0.5t-20 -1.5t-17.5 -2.5t-15 -3t-11 -2.5t-6.5 -1l-2 -1v-78z" />
<glyph unicode="&#xd1;" horiz-adv-x="1273" d="M72 2v1202l368 17l305 -478v478h457v-1196l-350 -23l-371 528l25 -510zM219 1341v48q0 109 56.5 161t154.5 52h19q57 0 141 -40.5t104 -41.5q49 2 49 82l250 -15q8 -33 8 -94q0 -50 -19.5 -86t-53.5 -55.5t-71 -28t-79 -8.5q-46 0 -133 32.5t-137 32.5q-34 0 -55.5 -16 t-26.5 -32l-4 -15z" />
<glyph unicode="&#xd2;" d="M72 649q0 35 3 72.5t17 99.5t38 116t70.5 113t109 100.5t159.5 69t217 27.5q118 0 212 -28.5t153 -69.5t102 -107t63 -120t31.5 -132t13 -118.5t1.5 -102.5q0 -26 -2.5 -57t-15.5 -90t-35 -111.5t-66.5 -111.5t-104 -101t-153.5 -70t-209 -28q-146 0 -262 49.5t-190 137 t-113 205t-39 257.5zM457 1556h248q76 -186 90 -223q-16 -2 -70 -2h-111zM489 625q0 -15 1.5 -35t6 -63t17 -80t31.5 -74.5t52.5 -59.5t76.5 -22q176 0 176 348q0 36 -2.5 71t-13 85t-28 86t-51.5 62t-79 26q-40 0 -72 -16.5t-51.5 -45.5t-33 -62.5t-19.5 -75.5t-8.5 -75 t-2.5 -69z" />
<glyph unicode="&#xd3;" d="M72 649q0 35 3 72.5t17 99.5t38 116t70.5 113t109 100.5t159.5 69t217 27.5q118 0 212 -28.5t153 -69.5t102 -107t63 -120t31.5 -132t13 -118.5t1.5 -102.5q0 -26 -2.5 -57t-15.5 -90t-35 -111.5t-66.5 -111.5t-104 -101t-153.5 -70t-209 -28q-146 0 -262 49.5t-190 137 t-113 205t-39 257.5zM489 625q0 -15 1.5 -35t6 -63t17 -80t31.5 -74.5t52.5 -59.5t76.5 -22q176 0 176 348q0 36 -2.5 71t-13 85t-28 86t-51.5 62t-79 26q-40 0 -72 -16.5t-51.5 -45.5t-33 -62.5t-19.5 -75.5t-8.5 -75t-2.5 -69zM567 1323l84 207h230l-148 -209 q-152 0 -166 2z" />
<glyph unicode="&#xd4;" d="M72 649q0 35 3 72.5t17 99.5t38 116t70.5 113t109 100.5t159.5 69t217 27.5q118 0 212 -28.5t153 -69.5t102 -107t63 -120t31.5 -132t13 -118.5t1.5 -102.5q0 -26 -2.5 -57t-15.5 -90t-35 -111.5t-66.5 -111.5t-104 -101t-153.5 -70t-209 -28q-146 0 -262 49.5t-190 137 t-113 205t-39 257.5zM410 1333q5 14 108 271h303q3 -9 52 -129t57 -142h-187l-75 195l-66 -197q-174 0 -192 2zM489 625q0 -15 1.5 -35t6 -63t17 -80t31.5 -74.5t52.5 -59.5t76.5 -22q176 0 176 348q0 36 -2.5 71t-13 85t-28 86t-51.5 62t-79 26q-40 0 -72 -16.5 t-51.5 -45.5t-33 -62.5t-19.5 -75.5t-8.5 -75t-2.5 -69z" />
<glyph unicode="&#xd5;" d="M72 649q0 35 3 72.5t17 99.5t38 116t70.5 113t109 100.5t159.5 69t217 27.5q118 0 212 -28.5t153 -69.5t102 -107t63 -120t31.5 -132t13 -118.5t1.5 -102.5q0 -26 -2.5 -57t-15.5 -90t-35 -111.5t-66.5 -111.5t-104 -101t-153.5 -70t-209 -28q-146 0 -262 49.5t-190 137 t-113 205t-39 257.5zM262 1341v48q0 109 56.5 161t154.5 52h19q57 0 141 -40.5t104 -41.5q49 2 49 82l250 -15q8 -33 8 -94q0 -50 -19.5 -86t-53.5 -55.5t-71 -28t-79 -8.5q-47 0 -134 32.5t-136 32.5q-34 0 -55.5 -16t-25.5 -32l-5 -15zM489 625q0 -15 1.5 -35t6 -63 t17 -80t31.5 -74.5t52.5 -59.5t76.5 -22q176 0 176 348q0 36 -2.5 71t-13 85t-28 86t-51.5 62t-79 26q-40 0 -72 -16.5t-51.5 -45.5t-33 -62.5t-19.5 -75.5t-8.5 -75t-2.5 -69z" />
<glyph unicode="&#xd6;" d="M72 649q0 35 3 72.5t17 99.5t38 116t70.5 113t109 100.5t159.5 69t217 27.5q118 0 212 -28.5t153 -69.5t102 -107t63 -120t31.5 -132t13 -118.5t1.5 -102.5q0 -26 -2.5 -57t-15.5 -90t-35 -111.5t-66.5 -111.5t-104 -101t-153.5 -70t-209 -28q-146 0 -262 49.5t-190 137 t-113 205t-39 257.5zM303 1462q0 60 40.5 102t98.5 42q60 0 102 -42t42 -102t-41.5 -99.5t-102.5 -39.5q-59 0 -99 39.5t-40 99.5zM489 625q0 -15 1.5 -35t6 -63t17 -80t31.5 -74.5t52.5 -59.5t76.5 -22q176 0 176 348q0 36 -2.5 71t-13 85t-28 86t-51.5 62t-79 26 q-40 0 -72 -16.5t-51.5 -45.5t-33 -62.5t-19.5 -75.5t-8.5 -75t-2.5 -69zM770 1419q0 41 29 71t69 30q43 0 74 -30t31 -71q0 -42 -31 -72t-74 -30q-40 0 -69 30t-29 72z" />
<glyph unicode="&#xd8;" d="M72 649q0 35 3 72.5t17 99.5t38 116t70.5 113t109 100.5t159.5 69t217 27.5q50 0 94 -6q21 54 45.5 113.5t34.5 85t10 26.5q0 4 29 4q22 0 85 -3t83 -3q25 0 25 2q0 1 -14 -32.5t-41.5 -99t-59.5 -144.5q51 -24 93 -57t71 -74t50.5 -80.5t34 -89.5t20.5 -87.5t11 -88 t4 -77t1 -67.5q0 -26 -2.5 -57t-15.5 -90t-35 -111.5t-66.5 -111.5t-104 -101t-153.5 -70t-209 -28q-102 0 -178 20l-58 -141l-209 10q35 86 86 213q-121 83 -183 225t-62 322zM489 625q0 -35 7 -88l174 432q-46 -1 -80.5 -26t-53.5 -60.5t-30 -85t-14 -89t-3 -83.5z M612 303q27 -12 62 -12q176 0 176 348q0 99 -23 186q-75 -179 -215 -522z" />
<glyph unicode="&#xd9;" horiz-adv-x="1327" d="M51 893q0 -83 6.5 -161t24.5 -169.5t47 -169.5t78 -152t113 -126t157 -83.5t205 -31.5q99 0 181.5 25t141 67t103 102.5t72 126.5t45 145t24 152t6.5 152q0 108 -11.5 221t-23.5 171l-12 59l-411 -31l-19 -2q0 -2 4.5 -33t9 -63.5t9 -77.5t7.5 -95.5t3 -97.5 q0 -342 -152 -342q-153 0 -153 361q0 79 7 166.5t15 135.5l7 48h-463q-21 -127 -21 -297zM399 1528h271q84 -201 98 -242q-16 -4 -74 -4h-121z" />
<glyph unicode="&#xda;" horiz-adv-x="1327" d="M51 893q0 -83 6.5 -161t24.5 -169.5t47 -169.5t78 -152t113 -126t157 -83.5t205 -31.5q99 0 181.5 25t141 67t103 102.5t72 126.5t45 145t24 152t6.5 152q0 108 -11.5 221t-23.5 171l-12 59l-411 -31l-19 -2q0 -2 4.5 -33t9 -63.5t9 -77.5t7.5 -95.5t3 -97.5 q0 -342 -152 -342q-153 0 -153 361q0 79 7 166.5t15 135.5l7 48h-463q-21 -127 -21 -297zM530 1309l113 272h303l-194 -276q-202 0 -222 4z" />
<glyph unicode="&#xdb;" horiz-adv-x="1327" d="M51 893q0 -83 6.5 -161t24.5 -169.5t47 -169.5t78 -152t113 -126t157 -83.5t205 -31.5q99 0 181.5 25t141 67t103 102.5t72 126.5t45 145t24 152t6.5 152q0 108 -11.5 221t-23.5 171l-12 59l-411 -31l-19 -2q0 -2 4.5 -33t9 -63.5t9 -77.5t7.5 -95.5t3 -97.5 q0 -342 -152 -342q-153 0 -153 361q0 79 7 166.5t15 135.5l7 48h-463q-21 -127 -21 -297zM459 1331q5 14 25.5 64t38 94t18.5 47h231q2 -7 39 -98t43 -107h-141l-58 148l-51 -150q-131 0 -145 2z" />
<glyph unicode="&#xdc;" horiz-adv-x="1327" d="M51 893q0 -83 6.5 -161t24.5 -169.5t47 -169.5t78 -152t113 -126t157 -83.5t205 -31.5q99 0 181.5 25t141 67t103 102.5t72 126.5t45 145t24 152t6.5 152q0 108 -11.5 221t-23.5 171l-12 59l-411 -31l-19 -2q0 -2 4.5 -33t9 -63.5t9 -77.5t7.5 -95.5t3 -97.5 q0 -342 -152 -342q-153 0 -153 361q0 79 7 166.5t15 135.5l7 48h-463q-21 -127 -21 -297zM379 1427q0 54 35.5 90.5t89.5 36.5q53 0 90 -36.5t37 -90.5q0 -52 -37 -87t-90 -35q-54 0 -89.5 34.5t-35.5 87.5zM721 1389q0 38 25 64t61 26q39 0 66.5 -26t27.5 -64t-27.5 -64.5 t-66.5 -26.5q-35 0 -60.5 26.5t-25.5 64.5z" />
<glyph unicode="&#xdd;" horiz-adv-x="1404" d="M102 922q0 122 31 299h436q0 -94 -0.5 -165t-1 -106.5t-1 -57.5t-1 -32.5t-0.5 -15.5q0 -34 5 -65t17.5 -65t40 -54.5t66.5 -20.5h13q39 0 67 20.5t40.5 54.5t18 65.5t5.5 64.5q0 2 -1 28.5t-2 113t-1 235.5h436l8 -52q9 -52 12.5 -77t8 -75.5t4.5 -94.5q0 -79 -9 -152 t-34 -152.5t-64 -142.5t-105.5 -117t-152.5 -82v-278h-469v278q-87 28 -154 82t-106.5 117t-64.5 143t-33.5 152t-8.5 152zM614 1329l84 207h230l-148 -209q-152 0 -166 2z" />
<glyph unicode="&#xdf;" horiz-adv-x="1296" d="M102 1112q5 5 15.5 12t49 26.5t84.5 34t123.5 26.5t164.5 12q122 0 215.5 -14t171.5 -46.5t119.5 -93.5t41.5 -149q0 -53 -19 -113t-62.5 -108t-98.5 -48q15 0 31 -1.5t46 -8t56 -18t55.5 -34.5t50 -53.5t34.5 -79t14 -108.5q0 -64 -20 -116t-52 -87t-79 -62t-94 -42 t-104 -24.5t-102.5 -13t-95.5 -3.5l-20 209q36 0 70 7t69 23t56.5 49.5t21.5 80.5q0 80 -29.5 107.5t-95.5 27.5h-43l-14 196q49 7 74.5 35t25.5 96v15q-10 100 -117 100q-36 0 -79 -10t-44 -10q3 0 12 -125.5t17 -292t8 -260.5v-33q0 -36 -2 -108.5t-2 -106.5 q-86 4 -191 17.5t-167 24.5l-62 11q-21 871 -33 1059z" />
<glyph unicode="&#xe0;" horiz-adv-x="1560" d="M72 410q60 4 103.5 17t63 29t31 31.5t12.5 26.5l1 10l151 697h586q208 -723 237 -756q20 -23 146 -23l65 2l21 -444h-422l18 143h-630v-143h-359zM399 1458q0 54 36.5 91.5t90.5 37.5t91.5 -37.5t37.5 -91.5t-37.5 -90.5t-91.5 -36.5t-90.5 36.5t-36.5 90.5zM637 510h225 l-92 397h-57zM823 1417q0 38 27 66t65 28t66.5 -28t28.5 -66t-28 -65t-67 -27q-38 0 -65 27t-27 65z" />
<glyph unicode="&#xe1;" horiz-adv-x="1560" d="M72 410q60 4 103.5 17t63 29t31 31.5t12.5 26.5l1 10l151 697h586q208 -723 237 -756q20 -23 146 -23l65 2l21 -444h-422l18 143h-630v-143h-359zM610 1327l84 207h230l-148 -209q-152 0 -166 2zM637 510h225l-92 397h-57z" />
<glyph unicode="&#xe2;" horiz-adv-x="1560" d="M72 410q60 4 103.5 17t63 29t31 31.5t12.5 26.5l1 10l151 697h586q208 -723 237 -756q20 -23 146 -23l65 2l21 -444h-422l18 143h-630v-143h-359zM537 1327q5 14 25 64t37.5 94t18.5 47h232q2 -7 39 -98t43 -107h-141l-58 148l-51 -150q-131 0 -145 2zM637 510h225 l-92 397h-57z" />
<glyph unicode="&#xe3;" horiz-adv-x="1560" d="M72 410q60 4 103.5 17t63 29t31 31.5t12.5 26.5l1 10l151 697h586q208 -723 237 -756q20 -23 146 -23l65 2l21 -444h-422l18 143h-630v-143h-359zM317 1341v48q0 109 56.5 161t154.5 52h19q57 0 141.5 -40.5t104.5 -41.5q49 2 49 82l250 -15q8 -33 8 -94q0 -50 -19.5 -86 t-53.5 -55.5t-71 -28t-79 -8.5q-47 0 -134 32.5t-137 32.5q-34 0 -55.5 -16t-26.5 -32l-4 -15zM637 510h225l-92 397h-57z" />
<glyph unicode="&#xe4;" horiz-adv-x="1560" d="M72 410q60 4 103.5 17t63 29t31 31.5t12.5 26.5l1 10l151 697h586q208 -723 237 -756q20 -23 146 -23l65 2l21 -444h-422l18 143h-630v-143h-359zM508 1536h229q72 -172 84 -207q-14 -2 -63 -2h-103zM637 510h225l-92 397h-57z" />
<glyph unicode="&#xe5;" horiz-adv-x="1560" d="M72 410q60 4 103.5 17t63 29t31 31.5t12.5 26.5l1 10l151 697h586q208 -723 237 -756q20 -23 146 -23l65 2l21 -444h-422l18 143h-630v-143h-359zM543 1479q0 71 50.5 121.5t121.5 50.5t121.5 -50.5t50.5 -121.5t-50.5 -121.5t-121.5 -50.5t-121.5 50.5t-50.5 121.5z M637 510h225l-92 397h-57zM674 1485q0 -19 12 -31t31 -12t32 12t13 31t-13 32t-32 13t-31 -13t-12 -32z" />
<glyph unicode="&#xe6;" horiz-adv-x="2490" d="M102 410q60 4 103.5 17t63 29t31 31.5t12.5 26.5l1 10l152 697h586q208 -723 237 -756q16 -19 105 -23l-27 777h977v-330h-492v-152l424 17l-12 -312h-412v-145h516l21 -297h-1290l18 143h-631v-143h-358zM668 510h225l-92 397h-58z" />
<glyph unicode="&#xe7;" horiz-adv-x="1280" d="M102 580q0 112 24.5 205t65.5 158t100.5 115t123 80.5t140 49.5t145 26t143.5 7q150 0 334 -35v-484q-104 0 -183 0.5t-118.5 1t-64 1.5t-35.5 1.5t-17 0.5q-37 0 -72 -5.5t-73.5 -20t-61.5 -45t-23 -73.5q0 -38 12.5 -65t29.5 -41.5t46.5 -22t52 -9t56.5 -1.5 q90 0 203 9t180 19l68 9v-434q-146 -31 -328 -31q-14 0 -39 1t-39 1l-4 -12q51 -1 89 -15t56 -32t28.5 -42.5t12.5 -37.5t2 -25q0 -62 -25 -104.5t-67 -62.5t-81.5 -28t-84.5 -8q-24 0 -46.5 1.5t-33.5 3.5l-10 2v196q40 -10 92 -10q88 0 88 53q0 64 -108 64l-47 -4v75 q-85 14 -158 38.5t-143.5 69.5t-120 106t-79.5 151.5t-30 202.5z" />
<glyph unicode="&#xe8;" horiz-adv-x="1165" d="M72 1219h977v-330h-492v-152l424 17l-12 -312h-412v-145h516l21 -291h-979zM356 1534h230q72 -172 84 -207q-14 -2 -64 -2h-102z" />
<glyph unicode="&#xe9;" horiz-adv-x="1165" d="M72 1219h977v-330h-492v-152l424 17l-12 -312h-412v-145h516l21 -291h-979zM434 1329l84 207h230l-148 -209q-152 0 -166 2z" />
<glyph unicode="&#xea;" horiz-adv-x="1165" d="M72 1219h977v-330h-492v-152l424 17l-12 -312h-412v-145h516l21 -291h-979zM322 1321q6 16 29.5 74.5t43.5 110t21 55.5h270q1 -2 44.5 -109.5t51.5 -130.5h-166l-65 172l-59 -174q-154 0 -170 2z" />
<glyph unicode="&#xeb;" horiz-adv-x="1165" d="M72 1219h977v-330h-492v-152l424 17l-12 -312h-412v-145h516l21 -291h-979zM281 1421q0 46 31.5 78.5t76.5 32.5q44 0 76.5 -32.5t32.5 -78.5q0 -44 -32 -75t-77 -31q-46 0 -77 31t-31 75zM639 1389q0 32 21.5 54.5t52.5 22.5q34 0 57 -22.5t23 -54.5q0 -34 -23 -56 t-57 -22q-31 0 -52.5 22.5t-21.5 55.5z" />
<glyph unicode="&#xec;" horiz-adv-x="643" d="M-14 1454h325q103 -246 119 -295q-20 -2 -235 -2zM86 1030h473v-1030h-430z" />
<glyph unicode="&#xed;" horiz-adv-x="643" d="M86 1030h473v-1030h-430zM170 1159q7 22 37 95.5t56 136.5l26 63h325l-208 -297q-216 0 -236 2z" />
<glyph unicode="&#xee;" horiz-adv-x="643" d="M41 1145q5 15 23.5 61.5t37 91.5t35.5 85.5t17 41.5h315q3 -10 54 -133.5t59 -146.5h-195l-78 203l-69 -205q-181 0 -199 2zM86 1030h473v-1030h-430z" />
<glyph unicode="&#xef;" horiz-adv-x="643" d="M-23 1327q0 71 47.5 119.5t116.5 48.5q71 0 119.5 -48.5t48.5 -119.5q0 -69 -48.5 -116.5t-119.5 -47.5q-69 0 -116.5 47.5t-47.5 116.5zM86 1030h473v-1030h-430zM401 1276q0 50 34.5 84.5t82.5 34.5q50 0 86.5 -34.5t36.5 -84.5t-36.5 -85.5t-86.5 -35.5 q-48 0 -82.5 35t-34.5 86z" />
<glyph unicode="&#xf1;" horiz-adv-x="1273" d="M72 2v1202l368 17l305 -478v478h457v-1196l-350 -23l-371 528l25 -510zM219 1341v48q0 109 56.5 161t154.5 52h19q57 0 141 -40.5t104 -41.5q49 2 49 82l250 -15q8 -33 8 -94q0 -50 -19.5 -86t-53.5 -55.5t-71 -28t-79 -8.5q-46 0 -133 32.5t-137 32.5q-34 0 -55.5 -16 t-26.5 -32l-4 -15z" />
<glyph unicode="&#xf2;" d="M72 649q0 35 3 72.5t17 99.5t38 116t70.5 113t109 100.5t159.5 69t217 27.5q118 0 212 -28.5t153 -69.5t102 -107t63 -120t31.5 -132t13 -118.5t1.5 -102.5q0 -26 -2.5 -57t-15.5 -90t-35 -111.5t-66.5 -111.5t-104 -101t-153.5 -70t-209 -28q-146 0 -262 49.5t-190 137 t-113 205t-39 257.5zM457 1556h248q76 -186 90 -223q-16 -2 -70 -2h-111zM489 625q0 -15 1.5 -35t6 -63t17 -80t31.5 -74.5t52.5 -59.5t76.5 -22q176 0 176 348q0 36 -2.5 71t-13 85t-28 86t-51.5 62t-79 26q-40 0 -72 -16.5t-51.5 -45.5t-33 -62.5t-19.5 -75.5t-8.5 -75 t-2.5 -69z" />
<glyph unicode="&#xf3;" d="M72 649q0 35 3 72.5t17 99.5t38 116t70.5 113t109 100.5t159.5 69t217 27.5q118 0 212 -28.5t153 -69.5t102 -107t63 -120t31.5 -132t13 -118.5t1.5 -102.5q0 -26 -2.5 -57t-15.5 -90t-35 -111.5t-66.5 -111.5t-104 -101t-153.5 -70t-209 -28q-146 0 -262 49.5t-190 137 t-113 205t-39 257.5zM489 625q0 -15 1.5 -35t6 -63t17 -80t31.5 -74.5t52.5 -59.5t76.5 -22q176 0 176 348q0 36 -2.5 71t-13 85t-28 86t-51.5 62t-79 26q-40 0 -72 -16.5t-51.5 -45.5t-33 -62.5t-19.5 -75.5t-8.5 -75t-2.5 -69zM567 1323l84 207h230l-148 -209 q-152 0 -166 2z" />
<glyph unicode="&#xf4;" d="M72 649q0 35 3 72.5t17 99.5t38 116t70.5 113t109 100.5t159.5 69t217 27.5q118 0 212 -28.5t153 -69.5t102 -107t63 -120t31.5 -132t13 -118.5t1.5 -102.5q0 -26 -2.5 -57t-15.5 -90t-35 -111.5t-66.5 -111.5t-104 -101t-153.5 -70t-209 -28q-146 0 -262 49.5t-190 137 t-113 205t-39 257.5zM410 1333q5 14 108 271h303q3 -9 52 -129t57 -142h-187l-75 195l-66 -197q-174 0 -192 2zM489 625q0 -15 1.5 -35t6 -63t17 -80t31.5 -74.5t52.5 -59.5t76.5 -22q176 0 176 348q0 36 -2.5 71t-13 85t-28 86t-51.5 62t-79 26q-40 0 -72 -16.5 t-51.5 -45.5t-33 -62.5t-19.5 -75.5t-8.5 -75t-2.5 -69z" />
<glyph unicode="&#xf5;" d="M72 649q0 35 3 72.5t17 99.5t38 116t70.5 113t109 100.5t159.5 69t217 27.5q118 0 212 -28.5t153 -69.5t102 -107t63 -120t31.5 -132t13 -118.5t1.5 -102.5q0 -26 -2.5 -57t-15.5 -90t-35 -111.5t-66.5 -111.5t-104 -101t-153.5 -70t-209 -28q-146 0 -262 49.5t-190 137 t-113 205t-39 257.5zM262 1341v48q0 109 56.5 161t154.5 52h19q57 0 141 -40.5t104 -41.5q49 2 49 82l250 -15q8 -33 8 -94q0 -50 -19.5 -86t-53.5 -55.5t-71 -28t-79 -8.5q-47 0 -134 32.5t-136 32.5q-34 0 -55.5 -16t-25.5 -32l-5 -15zM489 625q0 -15 1.5 -35t6 -63 t17 -80t31.5 -74.5t52.5 -59.5t76.5 -22q176 0 176 348q0 36 -2.5 71t-13 85t-28 86t-51.5 62t-79 26q-40 0 -72 -16.5t-51.5 -45.5t-33 -62.5t-19.5 -75.5t-8.5 -75t-2.5 -69z" />
<glyph unicode="&#xf6;" d="M72 649q0 35 3 72.5t17 99.5t38 116t70.5 113t109 100.5t159.5 69t217 27.5q118 0 212 -28.5t153 -69.5t102 -107t63 -120t31.5 -132t13 -118.5t1.5 -102.5q0 -26 -2.5 -57t-15.5 -90t-35 -111.5t-66.5 -111.5t-104 -101t-153.5 -70t-209 -28q-146 0 -262 49.5t-190 137 t-113 205t-39 257.5zM303 1462q0 60 40.5 102t98.5 42q60 0 102 -42t42 -102t-41.5 -99.5t-102.5 -39.5q-59 0 -99 39.5t-40 99.5zM489 625q0 -15 1.5 -35t6 -63t17 -80t31.5 -74.5t52.5 -59.5t76.5 -22q176 0 176 348q0 36 -2.5 71t-13 85t-28 86t-51.5 62t-79 26 q-40 0 -72 -16.5t-51.5 -45.5t-33 -62.5t-19.5 -75.5t-8.5 -75t-2.5 -69zM770 1419q0 41 29 71t69 30q43 0 74 -30t31 -71q0 -42 -31 -72t-74 -30q-40 0 -69 30t-29 72z" />
<glyph unicode="&#xf7;" horiz-adv-x="1032" d="M102 453v307h828v-307h-828zM371 264q0 60 40.5 102t100.5 42t101.5 -42t41.5 -102t-41.5 -100.5t-101.5 -40.5t-100.5 40.5t-40.5 100.5zM375 950q0 54 37.5 92.5t91.5 38.5t92.5 -38.5t38.5 -92.5t-38.5 -91.5t-92.5 -37.5t-91.5 37.5t-37.5 91.5z" />
<glyph unicode="&#xf8;" d="M72 649q0 35 3 72.5t17 99.5t38 116t70.5 113t109 100.5t159.5 69t217 27.5q50 0 94 -6q21 54 45.5 113.5t34.5 85t10 26.5q0 4 29 4q22 0 85 -3t83 -3q25 0 25 2q0 1 -14 -32.5t-41.5 -99t-59.5 -144.5q51 -24 93 -57t71 -74t50.5 -80.5t34 -89.5t20.5 -87.5t11 -88 t4 -77t1 -67.5q0 -26 -2.5 -57t-15.5 -90t-35 -111.5t-66.5 -111.5t-104 -101t-153.5 -70t-209 -28q-102 0 -178 20l-58 -141l-209 10q35 86 86 213q-121 83 -183 225t-62 322zM489 625q0 -35 7 -88l174 432q-46 -1 -80.5 -26t-53.5 -60.5t-30 -85t-14 -89t-3 -83.5z M612 303q27 -12 62 -12q176 0 176 348q0 99 -23 186q-75 -179 -215 -522z" />
<glyph unicode="&#xf9;" horiz-adv-x="1327" d="M51 893q0 -83 6.5 -161t24.5 -169.5t47 -169.5t78 -152t113 -126t157 -83.5t205 -31.5q99 0 181.5 25t141 67t103 102.5t72 126.5t45 145t24 152t6.5 152q0 108 -11.5 221t-23.5 171l-12 59l-411 -31l-19 -2q0 -2 4.5 -33t9 -63.5t9 -77.5t7.5 -95.5t3 -97.5 q0 -342 -152 -342q-153 0 -153 361q0 79 7 166.5t15 135.5l7 48h-463q-21 -127 -21 -297zM371 1358l84 207h223l-94 -209q-199 0 -213 2zM725 1358l84 207h229l-147 -209q-152 0 -166 2z" />
<glyph unicode="&#xfa;" horiz-adv-x="1327" d="M51 893q0 -83 6.5 -161t24.5 -169.5t47 -169.5t78 -152t113 -126t157 -83.5t205 -31.5q99 0 181.5 25t141 67t103 102.5t72 126.5t45 145t24 152t6.5 152q0 108 -11.5 221t-23.5 171l-12 59l-411 -31l-19 -2q0 -2 4.5 -33t9 -63.5t9 -77.5t7.5 -95.5t3 -97.5 q0 -342 -152 -342q-153 0 -153 361q0 79 7 166.5t15 135.5l7 48h-463q-21 -127 -21 -297zM530 1309l113 272h303l-194 -276q-202 0 -222 4z" />
<glyph unicode="&#xfb;" horiz-adv-x="1327" d="M51 893q0 -83 6.5 -161t24.5 -169.5t47 -169.5t78 -152t113 -126t157 -83.5t205 -31.5q99 0 181.5 25t141 67t103 102.5t72 126.5t45 145t24 152t6.5 152q0 108 -11.5 221t-23.5 171l-12 59l-411 -31l-19 -2q0 -2 4.5 -33t9 -63.5t9 -77.5t7.5 -95.5t3 -97.5 q0 -342 -152 -342q-153 0 -153 361q0 79 7 166.5t15 135.5l7 48h-463q-21 -127 -21 -297zM459 1331q5 14 25.5 64t38 94t18.5 47h231q2 -7 39 -98t43 -107h-141l-58 148l-51 -150q-131 0 -145 2z" />
<glyph unicode="&#xfc;" horiz-adv-x="1327" d="M51 893q0 -83 6.5 -161t24.5 -169.5t47 -169.5t78 -152t113 -126t157 -83.5t205 -31.5q99 0 181.5 25t141 67t103 102.5t72 126.5t45 145t24 152t6.5 152q0 108 -11.5 221t-23.5 171l-12 59l-411 -31l-19 -2q0 -2 4.5 -33t9 -63.5t9 -77.5t7.5 -95.5t3 -97.5 q0 -342 -152 -342q-153 0 -153 361q0 79 7 166.5t15 135.5l7 48h-463q-21 -127 -21 -297zM379 1427q0 54 35.5 90.5t89.5 36.5q53 0 90 -36.5t37 -90.5q0 -52 -37 -87t-90 -35q-54 0 -89.5 34.5t-35.5 87.5zM721 1389q0 38 25 64t61 26q39 0 66.5 -26t27.5 -64t-27.5 -64.5 t-66.5 -26.5q-35 0 -60.5 26.5t-25.5 64.5z" />
<glyph unicode="&#xfd;" horiz-adv-x="1404" d="M102 922q0 122 31 299h436q0 -94 -0.5 -165t-1 -106.5t-1 -57.5t-1 -32.5t-0.5 -15.5q0 -34 5 -65t17.5 -65t40 -54.5t66.5 -20.5h13q39 0 67 20.5t40.5 54.5t18 65.5t5.5 64.5q0 2 -1 28.5t-2 113t-1 235.5h436l8 -52q9 -52 12.5 -77t8 -75.5t4.5 -94.5q0 -79 -9 -152 t-34 -152.5t-64 -142.5t-105.5 -117t-152.5 -82v-278h-469v278q-87 28 -154 82t-106.5 117t-64.5 143t-33.5 152t-8.5 152zM614 1329l84 207h230l-148 -209q-152 0 -166 2z" />
<glyph unicode="&#xff;" horiz-adv-x="1404" d="M102 922q0 122 31 299h436q0 -94 -0.5 -165t-1 -106.5t-1 -57.5t-1 -32.5t-0.5 -15.5q0 -34 5 -65t17.5 -65t40 -54.5t66.5 -20.5h13q39 0 67 20.5t40.5 54.5t18 65.5t5.5 64.5q0 2 -1 28.5t-2 113t-1 235.5h436l8 -52q9 -52 12.5 -77t8 -75.5t4.5 -94.5q0 -79 -9 -152 t-34 -152.5t-64 -142.5t-105.5 -117t-152.5 -82v-278h-469v278q-87 28 -154 82t-106.5 117t-64.5 143t-33.5 152t-8.5 152zM485 1427q0 39 26 66t64 27t65.5 -27.5t27.5 -65.5t-27 -64t-66 -26q-38 0 -64 26t-26 64zM786 1399q0 27 19 46t45 19q28 0 48 -19t20 -46 q0 -28 -20 -47t-48 -19q-26 0 -45 19t-19 47z" />
<glyph unicode="&#x152;" horiz-adv-x="2293" d="M102 649q0 35 3 72.5t17.5 99.5t38 116t70.5 113t109.5 100.5t159.5 69t217 27.5q317 0 459 -192l-7 164h977v-330h-491v-152l424 17l-13 -312h-411v-145h516l20 -291h-979l-8 238q-148 -244 -497 -244q-146 0 -262 49.5t-190.5 137t-113.5 205t-39 257.5zM520 625 q0 -15 1.5 -35t6 -63t17 -80t31.5 -74.5t52.5 -59.5t76.5 -22q176 0 176 348q0 36 -2.5 71t-13 85t-28 86t-51.5 62t-79 26q-40 0 -72 -16.5t-51.5 -45.5t-33 -62.5t-19.5 -75.5t-8.5 -75t-2.5 -69z" />
<glyph unicode="&#x153;" horiz-adv-x="2293" d="M102 649q0 35 3 72.5t17.5 99.5t38 116t70.5 113t109.5 100.5t159.5 69t217 27.5q317 0 459 -192l-7 164h977v-330h-491v-152l424 17l-13 -312h-411v-145h516l20 -291h-979l-8 238q-148 -244 -497 -244q-146 0 -262 49.5t-190.5 137t-113.5 205t-39 257.5zM520 625 q0 -15 1.5 -35t6 -63t17 -80t31.5 -74.5t52.5 -59.5t76.5 -22q176 0 176 348q0 36 -2.5 71t-13 85t-28 86t-51.5 62t-79 26q-40 0 -72 -16.5t-51.5 -45.5t-33 -62.5t-19.5 -75.5t-8.5 -75t-2.5 -69z" />
<glyph unicode="&#x178;" horiz-adv-x="1404" d="M102 922q0 122 31 299h436q0 -94 -0.5 -165t-1 -106.5t-1 -57.5t-1 -32.5t-0.5 -15.5q0 -34 5 -65t17.5 -65t40 -54.5t66.5 -20.5h13q39 0 67 20.5t40.5 54.5t18 65.5t5.5 64.5q0 2 -1 28.5t-2 113t-1 235.5h436l8 -52q9 -52 12.5 -77t8 -75.5t4.5 -94.5q0 -79 -9 -152 t-34 -152.5t-64 -142.5t-105.5 -117t-152.5 -82v-278h-469v278q-87 28 -154 82t-106.5 117t-64.5 143t-33.5 152t-8.5 152zM485 1427q0 39 26 66t64 27t65.5 -27.5t27.5 -65.5t-27 -64t-66 -26q-38 0 -64 26t-26 64zM786 1399q0 27 19 46t45 19q28 0 48 -19t20 -46 q0 -28 -20 -47t-48 -19q-26 0 -45 19t-19 47z" />
<glyph unicode="&#x2c6;" horiz-adv-x="538" d="M72 1327q5 14 25.5 64t38 94t18.5 47h231q2 -7 39 -98t43 -107h-141l-58 148l-51 -150q-131 0 -145 2z" />
<glyph unicode="&#x2dc;" horiz-adv-x="987" d="M102 1341v48q0 109 56.5 161t154.5 52h19q57 0 141.5 -40.5t104.5 -41.5q49 2 49 82l250 -15q8 -33 8 -94q0 -50 -19.5 -86t-53.5 -55.5t-71 -28t-79 -8.5q-46 0 -134 32.5t-137 32.5q-34 0 -55.5 -16t-25.5 -32l-5 -15z" />
<glyph unicode="&#x2000;" horiz-adv-x="825" />
<glyph unicode="&#x2001;" horiz-adv-x="1651" />
<glyph unicode="&#x2002;" horiz-adv-x="825" />
<glyph unicode="&#x2003;" horiz-adv-x="1651" />
<glyph unicode="&#x2004;" horiz-adv-x="550" />
<glyph unicode="&#x2005;" horiz-adv-x="412" />
<glyph unicode="&#x2006;" horiz-adv-x="275" />
<glyph unicode="&#x2007;" horiz-adv-x="275" />
<glyph unicode="&#x2008;" horiz-adv-x="206" />
<glyph unicode="&#x2009;" horiz-adv-x="330" />
<glyph unicode="&#x200a;" horiz-adv-x="91" />
<glyph unicode="&#x2010;" horiz-adv-x="757" d="M102 475v307h553v-307h-553z" />
<glyph unicode="&#x2011;" horiz-adv-x="757" d="M102 475v307h553v-307h-553z" />
<glyph unicode="&#x2012;" horiz-adv-x="757" d="M102 475v307h553v-307h-553z" />
<glyph unicode="&#x2013;" horiz-adv-x="997" d="M102 475v307h793v-307h-793z" />
<glyph unicode="&#x2014;" horiz-adv-x="1226" d="M102 475v307h1022v-307h-1022z" />
<glyph unicode="&#x2018;" horiz-adv-x="450" d="M102 969v368h246v-368h-246z" />
<glyph unicode="&#x2019;" horiz-adv-x="450" d="M102 969v368h246v-368h-246z" />
<glyph unicode="&#x201a;" horiz-adv-x="575" d="M57 213q0 79 57 134.5t136 55.5q25 0 37 -2q61 -2 121.5 -60.5t64.5 -158.5v-8q0 -41 -8 -89.5t-19 -89.5t-22 -75.5t-19 -55.5l-8 -22h-276l67 187q-58 21 -94.5 71t-36.5 113z" />
<glyph unicode="&#x201c;" horiz-adv-x="774" d="M102 969v368h246v-368h-246zM426 969v368h246v-368h-246z" />
<glyph unicode="&#x201d;" horiz-adv-x="774" d="M102 969v368h246v-368h-246zM426 969v368h246v-368h-246z" />
<glyph unicode="&#x201e;" horiz-adv-x="1089" d="M102 213q0 79 57 134.5t136 55.5q25 0 37 -2q61 -2 121.5 -60.5t64.5 -158.5v-8q0 -41 -8 -89.5t-19 -89.5t-22 -75.5t-19 -55.5l-8 -22h-276l67 187q-58 21 -94.5 71t-36.5 113zM571 213q0 79 57 134.5t136 55.5q25 0 37 -2q61 -2 121.5 -60.5t64.5 -158.5v-8 q0 -41 -8 -89.5t-19 -89.5t-22 -75.5t-19 -55.5l-8 -22h-276l67 187q-58 21 -94.5 71t-36.5 113z" />
<glyph unicode="&#x2022;" horiz-adv-x="700" d="M102 604q0 103 72.5 175.5t175.5 72.5t175.5 -72.5t72.5 -175.5t-72.5 -175.5t-175.5 -72.5t-175.5 72.5t-72.5 175.5z" />
<glyph unicode="&#x2026;" horiz-adv-x="1548" d="M72 186q0 77 55 132t131 55t131 -55t55 -132q0 -76 -55 -131t-131 -55t-131 55t-55 131zM588 186q0 77 55 132t131 55t131.5 -55.5t55.5 -131.5t-55 -131t-132 -55q-76 0 -131 55t-55 131zM1104 186q0 77 55 132t131 55t131.5 -55.5t55.5 -131.5t-55 -131t-132 -55 q-76 0 -131 55t-55 131z" />
<glyph unicode="&#x202f;" horiz-adv-x="330" />
<glyph unicode="&#x2039;" horiz-adv-x="788" d="M102 590q1 0 50.5 82t99 168.5t49.5 95.5h1h1h1h1h1h1h1h1h1h1h1h1h1h1h1h1h1h1h1h1h1h1h1h1h1h1h1h1h1h1h1h1h1h1h1h1h1h1h1h1h1h1h1h1h1h1h1h1h1h1h1h1h1h1h1h1h1h1h1h1h1h1h1h1h2h1h1h1h1h1h1h1h1h1h2h1h1h1h1h1h1h2h1h1h1h1h2h1h1h1h1h2h1h1h1h2h1h1h1h2h1h1h1h2h1h1 h2h1h1h2h1h1h2h1h1h2h1h1h2h1h1h2h1h2h1h1h2h1h2h1h1h2h1h2h1h2h1h2h1h1h2h1h2h1h2h1h2h1h2h1h2h1h2h1h2h1h2h1h2h2h1h2h1h2h1h2h1h2h2h1h2h1h2h2h1h2h1h2h2h1h2h2h1h2h1h2h2h1h2h2h1h2h2h1h2h2h1h2h2h2h1h2h2h1h2h2h2h1h2h2h2h1h2h2h2h1h2h2h2h1h2h2h2h2h1h2h2h2h2h1h2h2h2 h2h2h1h2h2h2h2h2h2h1h2h2h2h9l-194 -367q3 -6 115 -165.5t116 -159.5q-8 -2 -78 -2q-44 0 -158 1t-126 1q0 -3 -55.5 83.5t-110.5 174.5z" />
<glyph unicode="&#x203a;" horiz-adv-x="788" d="M102 244q4 0 116.5 159.5t115.5 165.5l-195 367h1h1h1h1h1h1h1h1h1h1h1h1h1h1h1h1h1h1h1h1h1h1h1h1h1h1h1h1h1h1h1h1h1h1h1h1h1h1h1h1h1h1h1h1h1h1h1h1h1h1h1h1h1h1h1h1h1h1h1h1h1h1h1h2h1h1h1h1h1h1h1h1h2h1h1h1h1h1h2h1h1h1h1h2h1h1h1h2h1h1h1h2h1h1h1h2h1h1h2h1h1h2h1 h1h2h1h1h2h1h1h2h1h1h2h1h2h1h1h2h1h2h1h1h2h1h2h1h2h1h2h1h2h1h2h1h2h1h2h1h2h1h2h1h2h1h2h1h2h1h2h2h1h2h1h2h2h1h2h1h2h2h1h2h1h2h2h1h2h2h1h2h2h1h2h2h1h2h2h2h1h2h2h1h2h2h2h1h2h2h2h1h2h2h2h2h1h2h2h2h2h1h2h2h2h2h2h1h2h2h2h2h2h2h2h2h1h2h2h2h2h2h2h2h2h2h2h2h2h2h2 h2h2h2h2h2h3h2h2h9q0 -9 49.5 -95.5t99 -168.5t50.5 -82q-14 -22 -37 -58.5t-71.5 -113t-80.5 -126.5t-32 -48q-12 0 -126.5 -1t-158.5 -1q-70 0 -78 2z" />
<glyph unicode="&#x205f;" horiz-adv-x="412" />
<glyph unicode="&#x20ac;" horiz-adv-x="1331" d="M-86 686v137h178q14 61 38 115t70.5 112.5t109 100.5t159.5 69t217 27q100 0 182.5 -19.5t140.5 -54.5t102 -79t71 -98.5t42 -106.5t21 -109q-266 -37 -401 -53q-4 45 -14 83.5t-28 76.5t-50.5 60t-75.5 22q-118 0 -164 -146h125v-137h-148v-74h160v-129h-145 q16 -81 57.5 -136.5t112.5 -55.5q83 0 121.5 51.5t48.5 151.5l416 43q-2 -36 -8 -73t-22.5 -92t-42 -103.5t-70.5 -99.5t-103 -87t-145.5 -59t-192.5 -23q-246 0 -397.5 130.5t-192.5 352.5h-168v129h154v74h-158z" />
<glyph unicode="&#x2122;" horiz-adv-x="1421" d="M102 1040v170v13h514v-168h-129v-404h-231l-14 389h-140zM682 651v555l244 17l86 -262l63 262h244v-572h-174l10 217h-25l-63 -217h-131l-57 217h-17v-217h-180z" />
<glyph unicode="&#x25fc;" horiz-adv-x="1218" d="M0 0v1219h1219v-1219h-1219z" />
<glyph unicode="&#xfb01;" horiz-adv-x="1763" d="M72 1219h977v-330h-492v-199l424 17l-12 -312h-389v-393h-465zM1192 1331l170 35l70 119l49 -121l211 -37l-138 -108l15 -132l-154 58l-135 -58l31 154zM1206 1030h473v-1030h-430z" />
<glyph unicode="&#xfb02;" horiz-adv-x="2240" d="M72 1219h977v-330h-492v-199l424 17l-12 -312h-389v-393h-465zM1192 1221h547l-31 -879l426 20l35 -362h-916z" />
<glyph unicode="&#xfb03;" horiz-adv-x="2883" d="M72 1219h977v-330h-492v-199l424 17l-12 -312h-389v-393h-465zM1192 1219h977v-330h-492v-199l424 17l-12 -312h-389v-393h-465zM2312 1331l170 35l70 119l49 -121l211 -37l-137 -108l14 -132l-154 58l-135 -58l31 154zM2327 1030h473v-1030h-430z" />
<glyph unicode="&#xfb04;" horiz-adv-x="3330" d="M102 1219h977v-330h-491v-182h653l-18 512h977v-330h-492v-199l424 17l-12 -312h-389v-393h-465l-15 393h-641v-393h-465zM2251 1206h547l-31 -878l426 20l35 -362h-916z" />
</font>
</defs>
</svg>
