<?xml version="1.0" encoding="utf-8"?>
<!-- Generator: Adobe Illustrator 16.0.0, SVG Export Plug-In . SVG Version: 6.00 Build 0)  -->
<!DOCTYPE svg PUBLIC "-//W3C//DTD SVG 1.1//EN" "http://www.w3.org/Graphics/SVG/1.1/DTD/svg11.dtd">
<svg version="1.1" id="Capa_1" xmlns="http://www.w3.org/2000/svg" xmlns:xlink="http://www.w3.org/1999/xlink" x="0px" y="0px"
	 width="472.805px" height="616.66px" viewBox="0 0 472.805 616.66" enable-background="new 0 0 472.805 616.66"
	 xml:space="preserve">
<g>
	<g>
		
			<rect x="106.799" y="-15.34" transform="matrix(0.8837 -0.4681 0.4681 0.8837 -87.197 87.419)" fill="#3498DB" width="50.999" height="469"/>
		
			<rect x="315.005" y="-15.34" transform="matrix(-0.8837 -0.4681 0.4681 -0.8837 538.8211 572.2117)" fill="#3498DB" width="51" height="469"/>
	</g>
	<g>
		<rect x="34.402" y="405.66" fill="#3498DB" width="403" height="211"/>
		<rect x="49.402" y="421.66" fill="#FFFFFF" width="122" height="151"/>
		<g>
			<path fill="#D1D1D1" d="M157.254,507.174c0.435-1.736,0.844-3.412,1.064-5.189c0.106-0.854,0.211-1.705,0.315-2.557
				c0.083-0.666-0.248-1.488-0.376-2.154c-0.097-0.506-0.193-1.012-0.292-1.518c-0.063-0.336-0.395-0.727-0.569-1.027
				c-0.23-0.4-0.679-0.158-1.106-0.096c-0.417,0.061-0.836,0.121-1.253,0.182c-0.663,0.096-1.468,0.639-1.887,1.152
				c-0.435,0.531-1.357,1.301-1.455,1.975c-0.264,1.859-0.492,3.623-0.493,5.5c-0.001,0.838-0.001,1.674-0.002,2.512
				c0,0.857-0.157,1.654-0.305,2.502c-0.569,3.324-0.957,6.707-1.73,9.99c-0.187,0.787-0.374,1.576-0.558,2.365
				c-0.162,0.682-0.006,1.66-0.006,2.363c0.762-0.252,2.189-0.455,2.719-1.061c0.643-0.732,1.239-1.414,1.65-2.291
				c0.551-1.174,1.171-2.314,1.735-3.48C156.089,513.475,156.487,510.232,157.254,507.174z"/>
			<path fill="#D1D1D1" d="M68.403,500.451c-0.867-1.244-5.139-3.299-6.539-2.035c-1.316,1.184-1.171,6.051-0.979,7.633
				c0.317,2.596,1.652,4.826,2.676,7.221c1.117,2.617,1.247,5.41,2.692,7.846c1.717,2.889,1.773,4.385,5.535,4.387
				c3.13,0.002,1.699-3.301,1.285-5.303C71.896,514.49,71.709,505.195,68.403,500.451C68.053,499.949,70.159,502.973,68.403,500.451
				z"/>
			<g>
				<defs>
					<path id="SVGID_1_" d="M71.388,518.289c-1.051-8.785-1.356-17.41-1.624-26.258c-0.078-2.641,0.446-5.305,0.751-7.922
						c0.664-5.725,1.328-11.447,1.991-17.17c0.378-3.256,0.757-6.514,1.134-9.769c0.11-0.954,3.361-3.128,4.057-3.772
						c0.948-0.879,2.381-2.866,3.614-3.314c2.999-1.092,6.363-2.994,9.551-3.285c4.873-0.445,9.748-0.889,14.623-1.334
						c6.362-0.582,13.324-0.6,19.363,1.764c4.51,1.766,9.02,3.53,13.53,5.294c2.846,1.115,5.249,5.993,7.1,8.342
						c2.324,2.952,2.052,7.161,2.569,10.819c0.499,3.537,0.882,7.078,1.278,10.629c0.9,8.105,1.618,16.225,2.358,24.348
						c0.282,3.072-1,6.883-1.624,9.904c-0.71,3.428-1.238,7.082-2.207,10.434c-2.228,7.709-4.948,14.453-9.65,21.008
						c-3.929,5.477-10.762,11.164-17.49,12.525c-3.271,0.662-7.938,2.34-11.226,1.867c-4.039-0.578-7.241-1.818-10.854-3.707
						c-6.772-3.537-11.638-8.682-16.188-14.754c-4.39-5.854-6.857-12.771-9.391-19.572l-1.651-5.998"/>
				</defs>
				<use xlink:href="#SVGID_1_"  overflow="visible" fill="#D1D1D1"/>
				<clipPath id="SVGID_2_">
					<use xlink:href="#SVGID_1_"  overflow="visible"/>
				</clipPath>
				<path clip-path="url(#SVGID_2_)" fill="#BABABA" d="M148.535,517.896c-1.271,1.494-2.801,2.428-4.426,3.486
					c-1.292,0.842-1.331,4.014-1.905,5.566c-0.735,1.979-1.527,3.992-4.112,2.924c-1.352-0.561-0.152-4.24-0.815-5.975
					c-1.234-3.229-6.268-6.686-9.766-5.551c-4.889,1.584-7.747-0.465-12.433-0.467c-1.592-0.002-2.688,1.033-4.412,0.959
					c-1.763-0.074-3.938-1.213-5.568-0.848c-4.084,0.92-9.1,0.297-12.073,3.658c-1.447,1.637-3.735,2.408-5.081,3.988
					c-1.713,2.01-0.573,3.887-3.551,3.885c-3.684-0.002-7.309-5.5-10.224-7.777c-2.767,3.883,0.527,11.443,1.651,15.596
					c1.379,5.09,3.998,10.594,7.797,14.396c6.678,6.688,19.231,13.797,28.525,11.861c10.592-2.207,21.302-3.809,27.324-13.809
					C145.749,539.361,150.494,530.27,148.535,517.896z M131.704,535.41c-0.998,2.59-4.74,5.33-7.389,6.045
					c-5.611,1.514-3.949-2.582-2.145-5.215c-3.065-1.027-7.648-0.307-10.855,0.205c-4.697,0.75-4.46,1.088-1.252,4.521
					c-4.309,4.389-13.033,1.859-15.652-3.221c-3.181-6.168,0.229-14.6,7.867-14.596c3.185,0.004,6.342-0.031,9.518,0.24
					c2.928,0.248,5.587-0.553,8.634,0.119c2.191,0.484,7.392,1.08,9.121,2.299C132.569,527.93,131.706,531.875,131.704,535.41z"/>
			</g>
			<path fill="#C3C3C3" d="M81.326,489.256c0,0,1.671-1.113,1.95-1.207c0.279-0.092,3.248-2.502,3.248-2.502l4.176,0.467
				l7.142,0.465l5.844,2.533l1.725,2.693l1.521,2.762l-0.742,1.947l-7.238,1.105l-7.145,2.316l-7.211-0.004l-2.993-3.43
				l-1.572-5.521L81.326,489.256z"/>
			<path fill="#C3C3C3" d="M134.304,483.527h-3.896l-7.518,2.5l-2.629,1.762c0,0-0.992,5.195-0.992,5.592l5.101,3.043l6.462,0.648
				l8.104,0.004l2.971-2.592l0.836-2.418l-0.361-3.035l-2.977-2.996L134.304,483.527z"/>
			
				<ellipse transform="matrix(0.9971 -0.0756 0.0756 0.9971 -37.0674 8.4555)" fill="#FFFFFF" cx="93.108" cy="493.647" rx="8.535" ry="2.69"/>
			
				<ellipse transform="matrix(0.9998 0.02 -0.02 0.9998 9.8724 -2.4802)" fill="#FFFFFF" cx="128.793" cy="491.782" rx="8.535" ry="2.691"/>
			<path fill="#010002" d="M74.659,465.688c-0.005,10.809,0.127,20.697-2.285,31.334c-1.178,5.197-2.235,10.939-0.695,16.186
				c0.459,1.563,4.698,10.93,0.992,10.928c-2.569-0.002-2.952-21.807-3.92-23.963c-2.449-5.463-5.733-13.586-4.302-20.943
				c0.581-2.996,0.852-4.26,0.003-7.422c-1.26-4.693,0.571-3.701,1.848-8.654c1.285-4.986,2.715-9.563,5.354-14.039
				c2.271-3.854,8.213-5.52,8.215-10.163c0-0.651,18.802-7.021,20.062-7.021c9.389,0.004,20.361-1.184,28.183,4.838
				c-0.705-3.303,8.73,2.324,10.053,4.966c4.245,8.487,11.003,15.273,13.638,24.917c1.308,4.787,0.428,55.291-3.2,54.174
				c1.396-13.512,2.739-29.109-5.532-40.867c-3.994-5.676,0.336-12.035-2.313-18.172c-1.051-2.438-3.125-4.545-5.014-6.358
				c-2.505-2.407-5.851,1.769-9.28-1.685c-3.667-3.688-12.876,2.881-17.48,1.816c-6.418-1.488-6.5-4.354-12.448-0.836
				c-3.168,1.871-5.026-3.954-9.479-1.506C82.603,455.666,75.634,460.832,74.659,465.688
				C74.657,469.609,74.786,465.064,74.659,465.688z"/>
			<path fill="#211915" d="M80.028,492.039c1.47-1.469,2.938-2.938,4.407-4.402c1.467-1.467,2.461-1.525,4.662-1.488
				c5.791,0.098,11.621,2.254,17.093,4.047c-1.059-1.896-2.121-5.291-3.878-6.568c-1.143-0.832-2.422-2.17-3.725-2.713
				c-1.458-0.609-3.506-0.596-5.067-0.861c-1.094-0.186-2.032,0.813-3.096,0.857c-1.259,0.053-2.533-0.93-3.815-0.93
				c-2.802-0.002-3.888,3.768-5.279,6.027"/>
			<path fill="#211915" d="M142.744,489.285c-1.873-1.262-3.772-3.25-6.074-3.25c-1.929-0.002-3.287-3.846-5.616-2.029
				c-2.759,2.154-3.729,2.025-7.292,2.023c-1.983-0.002-3.963,1.604-5.695,2.5c0.001-3.324,1.668-5.609,3.434-8.381
				c0.301-0.471,2.748-0.164,3.541-0.354c1.306-0.313,2.766-0.908,4.117-0.906c1.885,0,3.774,0,5.659,0.002
				c1.293,0,2.093,1.4,2.972,2.277c2.185,2.188,3.427,4.676,4.955,7.373"/>
			<circle fill="#242424" cx="92.83" cy="493.37" r="2.69"/>
			<circle fill="#242424" cx="128.144" cy="491.716" r="2.69"/>
			<path fill="#FFFFFF" d="M97.752,529.41c0,0,16.976,4.74,31.172-1.029C119.254,526.707,97.752,529.41,97.752,529.41z"/>
			<path fill="#BBBBBB" d="M95.179,528.504c1.228-0.631,2.454-1.262,3.683-1.895c0.327-0.17,0.66-0.391,1.014-0.5
				c0.736-0.23,1.474-0.459,2.211-0.688c0.432-0.137,0.855-0.297,1.302-0.363c0.788-0.115,1.577-0.229,2.365-0.346
				c0.559-0.08,1.136-0.059,1.699-0.076c0.512-0.016,0.964,0.006,1.476,0.064c0.754,0.084,1.509,0.17,2.264,0.256
				c0.593,0.068,1.221,0.006,1.815,0.008c0.518,0,0.971-0.043,1.485-0.119c0.441-0.066,0.882-0.133,1.322-0.199
				c0.208-0.029,0.447-0.102,0.657-0.098c1.146,0.025,2.289,0.07,3.433,0.072c0.803,0,1.605,0,2.409,0
				c0.435,0,0.796,0.006,1.217,0.096c0.795,0.168,1.592,0.338,2.388,0.508c0.364,0.076,0.702,0.125,1.032,0.291
				c1.169,0.584,2.337,1.17,3.506,1.754c-0.672,0.164-1.343,0.328-2.015,0.492c-0.394,0.096-0.76,0.076-1.167,0.076
				c-1.331,0-2.663-0.016-3.995-0.002c-2.336,0.023-4.676,0.092-7.012,0.063c-1.591-0.02-3.182-0.039-4.774-0.059
				c-1.064-0.014-2.112,0.111-3.174,0.207c-2.64,0.236-5.273,0.496-7.909,0.754c-0.783,0.074-1.563,0.053-2.351,0.053
				c-0.517,0-1.033,0-1.549,0c-0.186,0-0.413-0.107-0.591-0.152C95.672,528.635,95.425,528.57,95.179,528.504z"/>
			<path fill="#BBBBBB" d="M97.057,529.896c1.365,1.025,2.73,2.049,4.096,3.076c1.089,0.814,2.953,0.666,4.282,0.842
				c3.493,0.461,6.896,0.652,10.405,0.252c6.237-0.711,11.487-2.748,17.05-5.613c-5.586,0.588-10.933,2.918-16.594,2.916
				C109.863,531.365,103.273,531.797,97.057,529.896z"/>
			<path fill="#BBBBBB" d="M107.764,495.855c0.285,2.016,1.206,5.193-0.468,6.865c-1.831,1.83-3.564,3.908-5.037,6.029
				c-1.147,1.652-3.066,4.348-1.271,6.326c0.87,0.959,1.913,2.107,3.353,1.217c1.365-0.844-0.384-2.488,1.467-2.859
				c3.246-0.648,3.187,1.895,5.565,3.018c3.096,1.463,4.459-1.971,6.418-3.213c0.478-0.303,1.167-0.244,1.725-0.191
				c0.984,0.094,0.733,0.318,0.733,1.283c-0.002,1.863,1.208,1.576,2.443,0.689c1.239-0.891,1.809-1.467,1.809-3.049
				c0.001-1.904,0.091-2.035-1.436-3.148c2.226-1.055,2.013,4.035,1.481,5.084c-0.46,0.912-1.371,1.291-2,2.023
				c-0.944,1.102-2.268,0.08-3.498,0.178c-0.869,0.068-2.284-0.215-3.034,0.26c-1.034,0.652-1.864,1.303-3.111,1.477
				c-2.486,0.35-3.637-2.1-6.179-1.535c-2.199,0.486-4.885,1.664-6.391-0.744c-1.24-1.979-0.372-4.916,0.898-6.637
				c1.529-2.072,3.294-3.969,4.609-6.186c0.521-0.877,1.697-1.979,1.632-3.07C107.415,498.672,106.775,496.41,107.764,495.855z"/>
			<circle fill="#211915" cx="92.83" cy="493.369" r="1.507"/>
			<circle fill="#211915" cx="128.144" cy="491.716" r="1.507"/>
		</g>
		<g>
			<text transform="matrix(1 0 0 1 207.7988 433.2432)" fill="#FFFFFF" font-family="'ONRAMP'" font-size="26.5167">name: </text>
			<text transform="matrix(1 0 0 1 274.4658 433.2432)"><tspan x="0" y="0" fill="#FFFFFF" font-family="'ONRAMP'" font-size="26.5167">DAVID </tspan><tspan x="0" y="18.464" fill="#FFFFFF" font-family="'ONRAMP'" font-size="26.5167">HERNANDEZ</tspan><tspan x="0" y="36.928" fill="#FFFFFF" font-family="'ONRAMP'" font-size="26.5167">SANTOS</tspan></text>
		</g>
		<g>
			<text transform="matrix(1 0 0 1 207.7988 512.001)" fill="#FFFFFF" font-family="'ONRAMP'" font-size="26.5167">work:</text>
			<text transform="matrix(1 0 0 1 274.4658 512.001)" fill="#FFFFFF" font-family="'ONRAMP'" font-size="26.5167">web designer</text>
		</g>
		<g>
			<text transform="matrix(1 0 0 1 207.7988 553.8311)" fill="#FFFFFF" font-family="'ONRAMP'" font-size="26.5167">city: </text>
			<text transform="matrix(1 0 0 1 274.4658 553.8311)" fill="#FFFFFF" font-family="'ONRAMP'" font-size="26.5167">madrid</text>
		</g>
		<g>
			<text transform="matrix(1 0 0 1 207.7988 595.6611)" fill="#FFFFFF" font-family="'ONRAMP'" font-size="26.5167">age: </text>
			<text transform="matrix(1 0 0 1 274.4658 595.6611)" fill="#FFFFFF" font-family="'ONRAMP'" font-size="26.5167">35</text>
		</g>
	</g>
</g>
</svg>
